<?xml version="1.0" encoding="utf-8" standalone="no"?>
<!DOCTYPE svg PUBLIC "-//W3C//DTD SVG 1.1//EN"
  "http://www.w3.org/Graphics/SVG/1.1/DTD/svg11.dtd">
<svg xmlns:xlink="http://www.w3.org/1999/xlink" width="496.46125pt" height="276.68425pt" viewBox="0 0 496.46125 276.68425" xmlns="http://www.w3.org/2000/svg" version="1.1">
 <metadata>
  <rdf:RDF xmlns:dc="http://purl.org/dc/elements/1.1/" xmlns:cc="http://creativecommons.org/ns#" xmlns:rdf="http://www.w3.org/1999/02/22-rdf-syntax-ns#">
   <cc:Work>
    <dc:type rdf:resource="http://purl.org/dc/dcmitype/StillImage"/>
    <dc:date>2025-10-20T12:20:29.150376</dc:date>
    <dc:format>image/svg+xml</dc:format>
    <dc:creator>
     <cc:Agent>
      <dc:title>Matplotlib v3.10.1, https://matplotlib.org/</dc:title>
     </cc:Agent>
    </dc:creator>
   </cc:Work>
  </rdf:RDF>
 </metadata>
 <defs>
  <style type="text/css">*{stroke-linejoin: round; stroke-linecap: butt}</style>
 </defs>
 <g id="figure_1">
  <g id="patch_1">
   <path d="M 0 276.68425 
L 496.46125 276.68425 
L 496.46125 0 
L 0 0 
z
" style="fill: #ffffff"/>
  </g>
  <g id="axes_1">
   <g id="patch_2">
    <path d="M 43.78125 239.128 
L 489.26125 239.128 
L 489.26125 7.2 
L 43.78125 7.2 
z
" style="fill: #ffffff"/>
   </g>
   <g id="PathCollection_1">
    <defs>
     <path id="m62410eebbb" d="M 0 3 
C 0.795609 3 1.55874 2.683901 2.12132 2.12132 
C 2.683901 1.55874 3 0.795609 3 0 
C 3 -0.795609 2.683901 -1.55874 2.12132 -2.12132 
C 1.55874 -2.683901 0.795609 -3 0 -3 
C -0.795609 -3 -1.55874 -2.683901 -2.12132 -2.12132 
C -2.683901 -1.55874 -3 -0.795609 -3 0 
C -3 0.795609 -2.683901 1.55874 -2.12132 2.12132 
C -1.55874 2.683901 -0.795609 3 0 3 
z
" style="stroke: #1f77b4"/>
    </defs>
    <g clip-path="url(#p68d81f6917)">
     <use xlink:href="#m62410eebbb" x="149.007142" y="36.320362" style="fill: #1f77b4; stroke: #1f77b4"/>
     <use xlink:href="#m62410eebbb" x="167.39395" y="34.693526" style="fill: #1f77b4; stroke: #1f77b4"/>
     <use xlink:href="#m62410eebbb" x="240.916479" y="33.308665" style="fill: #1f77b4; stroke: #1f77b4"/>
     <use xlink:href="#m62410eebbb" x="336.521001" y="37.370988" style="fill: #1f77b4; stroke: #1f77b4"/>
     <use xlink:href="#m62410eebbb" x="341.360444" y="90.617014" style="fill: #1f77b4; stroke: #1f77b4"/>
     <use xlink:href="#m62410eebbb" x="121.800351" y="167.17642" style="fill: #1f77b4; stroke: #1f77b4"/>
     <use xlink:href="#m62410eebbb" x="151.510508" y="166.934814" style="fill: #1f77b4; stroke: #1f77b4"/>
     <use xlink:href="#m62410eebbb" x="234.14014" y="162.35002" style="fill: #1f77b4; stroke: #1f77b4"/>
     <use xlink:href="#m62410eebbb" x="331.280318" y="177.804861" style="fill: #1f77b4; stroke: #1f77b4"/>
     <use xlink:href="#m62410eebbb" x="339.802902" y="184.428393" style="fill: #1f77b4; stroke: #1f77b4"/>
    </g>
   </g>
   <g id="patch_3">
    <path d="M 149.007142 42.243477 
C 149.00739 42.243477 149.007628 41.61938 149.007803 40.508637 
C 149.007979 39.397893 149.008078 37.89119 149.008078 36.320362 
C 149.008078 34.749533 149.007979 33.24283 149.007803 32.132087 
C 149.007628 31.021343 149.00739 30.397246 149.007142 30.397246 
C 149.006893 30.397246 149.006655 31.021343 149.00648 32.132087 
C 149.006304 33.24283 149.006206 34.749533 149.006206 36.320362 
C 149.006206 37.89119 149.006304 39.397893 149.00648 40.508637 
C 149.006655 41.61938 149.006893 42.243477 149.007142 42.243477 
z
" clip-path="url(#p68d81f6917)" style="fill: #1f77b4; opacity: 0.5; stroke: #1f77b4; stroke-linejoin: miter"/>
   </g>
   <g id="patch_4">
    <path d="M 167.39395 40.252526 
C 167.394105 40.252526 167.394255 39.666795 167.394365 38.624333 
C 167.394475 37.581871 167.394537 36.16779 167.394537 34.693526 
C 167.394537 33.219262 167.394475 31.805181 167.394365 30.762719 
C 167.394255 29.720257 167.394105 29.134526 167.39395 29.134526 
C 167.393794 29.134526 167.393644 29.720257 167.393534 30.762719 
C 167.393424 31.805181 167.393362 33.219262 167.393362 34.693526 
C 167.393362 36.16779 167.393424 37.581871 167.393534 38.624333 
C 167.393644 39.666795 167.393794 40.252526 167.39395 40.252526 
z
" clip-path="url(#p68d81f6917)" style="fill: #1f77b4; opacity: 0.5; stroke: #1f77b4; stroke-linejoin: miter"/>
   </g>
   <g id="patch_5">
    <path d="M 240.916479 38.996152 
C 240.916511 38.996152 240.916542 38.396883 240.916564 37.330326 
C 240.916587 36.263769 240.9166 34.817004 240.9166 33.308665 
C 240.9166 31.800325 240.916587 30.35356 240.916564 29.287003 
C 240.916542 28.220446 240.916511 27.621177 240.916479 27.621177 
C 240.916447 27.621177 240.916417 28.220446 240.916394 29.287003 
C 240.916371 30.35356 240.916359 31.800325 240.916359 33.308665 
C 240.916359 34.817004 240.916371 36.263769 240.916394 37.330326 
C 240.916417 38.396883 240.916447 38.996152 240.916479 38.996152 
z
" clip-path="url(#p68d81f6917)" style="fill: #1f77b4; opacity: 0.5; stroke: #1f77b4; stroke-linejoin: miter"/>
   </g>
   <g id="patch_6">
    <path d="M 336.521001 46.980281 
C 336.521008 46.980281 336.521014 45.967785 336.521019 44.165784 
C 336.521024 42.363783 336.521027 39.919402 336.521027 37.370988 
C 336.521027 34.822574 336.521024 32.378193 336.521019 30.576192 
C 336.521014 28.774191 336.521008 27.761695 336.521001 27.761695 
C 336.520995 27.761695 336.520988 28.774191 336.520984 30.576192 
C 336.520979 32.378193 336.520976 34.822574 336.520976 37.370988 
C 336.520976 39.919402 336.520979 42.363783 336.520984 44.165784 
C 336.520988 45.967785 336.520995 46.980281 336.521001 46.980281 
z
" clip-path="url(#p68d81f6917)" style="fill: #1f77b4; opacity: 0.5; stroke: #1f77b4; stroke-linejoin: miter"/>
   </g>
   <g id="patch_7">
    <path d="M 341.360444 132.547957 
C 341.36047 132.547957 341.360495 128.129848 341.360514 120.266668 
C 341.360532 112.403488 341.360542 101.73723 341.360542 90.617014 
C 341.360542 79.496799 341.360532 68.830541 341.360514 60.967361 
C 341.360495 53.104181 341.36047 48.686072 341.360444 48.686072 
C 341.360418 48.686072 341.360392 53.104181 341.360374 60.967361 
C 341.360355 68.830541 341.360345 79.496799 341.360345 90.617014 
C 341.360345 101.73723 341.360355 112.403488 341.360374 120.266668 
C 341.360392 128.129848 341.360418 132.547957 341.360444 132.547957 
z
" clip-path="url(#p68d81f6917)" style="fill: #1f77b4; opacity: 0.5; stroke: #1f77b4; stroke-linejoin: miter"/>
   </g>
   <g id="patch_8">
    <path d="M 121.800351 190.094385 
C 121.802092 190.094385 121.803762 187.679604 121.804993 183.381869 
C 121.806224 179.084133 121.806916 173.254335 121.806916 167.17642 
C 121.806916 161.098504 121.806224 155.268706 121.804993 150.970971 
C 121.803762 146.673235 121.802092 144.258454 121.800351 144.258454 
C 121.79861 144.258454 121.79694 146.673235 121.795709 150.970971 
C 121.794477 155.268706 121.793785 161.098504 121.793785 167.17642 
C 121.793785 173.254335 121.794477 179.084133 121.795709 183.381869 
C 121.79694 187.679604 121.79861 190.094385 121.800351 190.094385 
z
" clip-path="url(#p68d81f6917)" style="fill: #1f77b4; opacity: 0.5; stroke: #1f77b4; stroke-linejoin: miter"/>
   </g>
   <g id="patch_9">
    <path d="M 151.510508 194.157562 
C 151.511588 194.157562 151.512624 191.289201 151.513387 186.184204 
C 151.514151 181.079206 151.51458 174.154371 151.51458 166.934814 
C 151.51458 159.715256 151.514151 152.790421 151.513387 147.685424 
C 151.512624 142.580426 151.511588 139.712065 151.510508 139.712065 
C 151.509428 139.712065 151.508392 142.580426 151.507628 147.685424 
C 151.506864 152.790421 151.506435 159.715256 151.506435 166.934814 
C 151.506435 174.154371 151.506864 181.079206 151.507628 186.184204 
C 151.508392 191.289201 151.509428 194.157562 151.510508 194.157562 
z
" clip-path="url(#p68d81f6917)" style="fill: #1f77b4; opacity: 0.5; stroke: #1f77b4; stroke-linejoin: miter"/>
   </g>
   <g id="patch_10">
    <path d="M 234.14014 194.559952 
C 234.140349 194.559952 234.140551 191.166111 234.140699 185.125882 
C 234.140847 179.085652 234.140931 170.892194 234.140931 162.35002 
C 234.140931 153.807846 234.140847 145.614387 234.140699 139.574158 
C 234.140551 133.533928 234.140349 130.140087 234.14014 130.140087 
C 234.13993 130.140087 234.139729 133.533928 234.13958 139.574158 
C 234.139432 145.614387 234.139348 153.807846 234.139348 162.35002 
C 234.139348 170.892194 234.139432 179.085652 234.13958 185.125882 
C 234.139729 191.166111 234.13993 194.559952 234.14014 194.559952 
z
" clip-path="url(#p68d81f6917)" style="fill: #1f77b4; opacity: 0.5; stroke: #1f77b4; stroke-linejoin: miter"/>
   </g>
   <g id="patch_11">
    <path d="M 331.280318 218.191018 
C 331.280349 218.191018 331.280379 213.935677 331.280401 206.362186 
C 331.280424 198.788695 331.280436 188.515395 331.280436 177.804861 
C 331.280436 167.094327 331.280424 156.821027 331.280401 149.247535 
C 331.280379 141.674044 331.280349 137.418704 331.280318 137.418704 
C 331.280286 137.418704 331.280256 141.674044 331.280234 149.247535 
C 331.280212 156.821027 331.280199 167.094327 331.280199 177.804861 
C 331.280199 188.515395 331.280212 198.788695 331.280234 206.362186 
C 331.280256 213.935677 331.280286 218.191018 331.280318 218.191018 
z
" clip-path="url(#p68d81f6917)" style="fill: #1f77b4; opacity: 0.5; stroke: #1f77b4; stroke-linejoin: miter"/>
   </g>
   <g id="patch_12">
    <path d="M 339.802902 223.171824 
C 339.802927 223.171824 339.802951 219.089572 339.802968 211.824136 
C 339.802986 204.5587 339.802996 194.703271 339.802996 184.428393 
C 339.802996 174.153515 339.802986 164.298086 339.802968 157.032651 
C 339.802951 149.767215 339.802927 145.684962 339.802902 145.684962 
C 339.802876 145.684962 339.802852 149.767215 339.802835 157.032651 
C 339.802817 164.298086 339.802807 174.153515 339.802807 184.428393 
C 339.802807 194.703271 339.802817 204.5587 339.802835 211.824136 
C 339.802852 219.089572 339.802876 223.171824 339.802902 223.171824 
z
" clip-path="url(#p68d81f6917)" style="fill: #1f77b4; opacity: 0.5; stroke: #1f77b4; stroke-linejoin: miter"/>
   </g>
   <g id="PathCollection_2">
    <defs>
     <path id="m053d212232" d="M 0 3 
C 0.795609 3 1.55874 2.683901 2.12132 2.12132 
C 2.683901 1.55874 3 0.795609 3 0 
C 3 -0.795609 2.683901 -1.55874 2.12132 -2.12132 
C 1.55874 -2.683901 0.795609 -3 0 -3 
C -0.795609 -3 -1.55874 -2.683901 -2.12132 -2.12132 
C -2.683901 -1.55874 -3 -0.795609 -3 0 
C -3 0.795609 -2.683901 1.55874 -2.12132 2.12132 
C -1.55874 2.683901 -0.795609 3 0 3 
z
" style="stroke: #ff7f0e"/>
    </defs>
    <g clip-path="url(#p68d81f6917)">
     <use xlink:href="#m053d212232" x="171.515992" y="43.087083" style="fill: #ff7f0e; stroke: #ff7f0e"/>
     <use xlink:href="#m053d212232" x="182.403791" y="41.734724" style="fill: #ff7f0e; stroke: #ff7f0e"/>
     <use xlink:href="#m053d212232" x="244.92572" y="43.842456" style="fill: #ff7f0e; stroke: #ff7f0e"/>
     <use xlink:href="#m053d212232" x="329.296307" y="47.89501" style="fill: #ff7f0e; stroke: #ff7f0e"/>
     <use xlink:href="#m053d212232" x="329.496048" y="151.940634" style="fill: #ff7f0e; stroke: #ff7f0e"/>
     <use xlink:href="#m053d212232" x="139.816557" y="184.874562" style="fill: #ff7f0e; stroke: #ff7f0e"/>
     <use xlink:href="#m053d212232" x="158.019625" y="179.686624" style="fill: #ff7f0e; stroke: #ff7f0e"/>
     <use xlink:href="#m053d212232" x="236.216106" y="179.500167" style="fill: #ff7f0e; stroke: #ff7f0e"/>
     <use xlink:href="#m053d212232" x="320.402925" y="178.791982" style="fill: #ff7f0e; stroke: #ff7f0e"/>
     <use xlink:href="#m053d212232" x="323.421279" y="207.235841" style="fill: #ff7f0e; stroke: #ff7f0e"/>
    </g>
   </g>
   <g id="patch_13">
    <path d="M 171.515992 46.390051 
C 171.516077 46.390051 171.516158 46.04203 171.516218 45.422634 
C 171.516278 44.803239 171.516311 43.96304 171.516311 43.087083 
C 171.516311 42.211125 171.516278 41.370927 171.516218 40.751531 
C 171.516158 40.132136 171.516077 39.784114 171.515992 39.784114 
C 171.515908 39.784114 171.515826 40.132136 171.515767 40.751531 
C 171.515707 41.370927 171.515673 42.211125 171.515673 43.087083 
C 171.515673 43.96304 171.515707 44.803239 171.515767 45.422634 
C 171.515826 46.04203 171.515908 46.390051 171.515992 46.390051 
z
" clip-path="url(#p68d81f6917)" style="fill: #ff7f0e; opacity: 0.5; stroke: #ff7f0e; stroke-linejoin: miter"/>
   </g>
   <g id="patch_14">
    <path d="M 182.403791 44.018785 
C 182.403837 44.018785 182.403881 43.778122 182.403913 43.349799 
C 182.403946 42.921476 182.403964 42.340464 182.403964 41.734724 
C 182.403964 41.128984 182.403946 40.547971 182.403913 40.119649 
C 182.403881 39.691326 182.403837 39.450662 182.403791 39.450662 
C 182.403744 39.450662 182.4037 39.691326 182.403668 40.119649 
C 182.403635 40.547971 182.403617 41.128984 182.403617 41.734724 
C 182.403617 42.340464 182.403635 42.921476 182.403668 43.349799 
C 182.4037 43.778122 182.403744 44.018785 182.403791 44.018785 
z
" clip-path="url(#p68d81f6917)" style="fill: #ff7f0e; opacity: 0.5; stroke: #ff7f0e; stroke-linejoin: miter"/>
   </g>
   <g id="patch_15">
    <path d="M 244.92572 46.649701 
C 244.925735 46.649701 244.925749 46.353912 244.925759 45.827478 
C 244.925769 45.301044 244.925775 44.586946 244.925775 43.842456 
C 244.925775 43.097966 244.925769 42.383868 244.925759 41.857434 
C 244.925749 41.331 244.925735 41.03521 244.92572 41.03521 
C 244.925706 41.03521 244.925692 41.331 244.925682 41.857434 
C 244.925672 42.383868 244.925666 43.097966 244.925666 43.842456 
C 244.925666 44.586946 244.925672 45.301044 244.925682 45.827478 
C 244.925692 46.353912 244.925706 46.649701 244.92572 46.649701 
z
" clip-path="url(#p68d81f6917)" style="fill: #ff7f0e; opacity: 0.5; stroke: #ff7f0e; stroke-linejoin: miter"/>
   </g>
   <g id="patch_16">
    <path d="M 329.296307 50.916771 
C 329.29631 50.916771 329.296312 50.598379 329.296314 50.031718 
C 329.296315 49.465057 329.296316 48.696391 329.296316 47.89501 
C 329.296316 47.09363 329.296315 46.324964 329.296314 45.758303 
C 329.296312 45.191641 329.29631 44.87325 329.296307 44.87325 
C 329.296305 44.87325 329.296302 45.191641 329.296301 45.758303 
C 329.296299 46.324964 329.296298 47.09363 329.296298 47.89501 
C 329.296298 48.696391 329.296299 49.465057 329.296301 50.031718 
C 329.296302 50.598379 329.296305 50.916771 329.296307 50.916771 
z
" clip-path="url(#p68d81f6917)" style="fill: #ff7f0e; opacity: 0.5; stroke: #ff7f0e; stroke-linejoin: miter"/>
   </g>
   <g id="patch_17">
    <path d="M 329.496048 186.139868 
C 329.496075 186.139868 329.496102 182.536421 329.496121 176.123144 
C 329.496141 169.709867 329.496152 161.010377 329.496152 151.940634 
C 329.496152 142.870891 329.496141 134.1714 329.496121 127.758123 
C 329.496102 121.344847 329.496075 117.741399 329.496048 117.741399 
C 329.49602 117.741399 329.495993 121.344847 329.495974 127.758123 
C 329.495954 134.1714 329.495943 142.870891 329.495943 151.940634 
C 329.495943 161.010377 329.495954 169.709867 329.495974 176.123144 
C 329.495993 182.536421 329.49602 186.139868 329.496048 186.139868 
z
" clip-path="url(#p68d81f6917)" style="fill: #ff7f0e; opacity: 0.5; stroke: #ff7f0e; stroke-linejoin: miter"/>
   </g>
   <g id="patch_18">
    <path d="M 139.816557 190.772864 
C 139.816859 190.772864 139.817149 190.151382 139.817362 189.045291 
C 139.817576 187.939201 139.817696 186.43881 139.817696 184.874562 
C 139.817696 183.310314 139.817576 181.809923 139.817362 180.703833 
C 139.817149 179.597743 139.816859 178.976261 139.816557 178.976261 
C 139.816254 178.976261 139.815965 179.597743 139.815751 180.703833 
C 139.815537 181.809923 139.815417 183.310314 139.815417 184.874562 
C 139.815417 186.43881 139.815537 187.939201 139.815751 189.045291 
C 139.815965 190.151382 139.816254 190.772864 139.816557 190.772864 
z
" clip-path="url(#p68d81f6917)" style="fill: #ff7f0e; opacity: 0.5; stroke: #ff7f0e; stroke-linejoin: miter"/>
   </g>
   <g id="patch_19">
    <path d="M 158.019625 182.588786 
C 158.019725 182.588786 158.019821 182.282996 158.019892 181.738762 
C 158.019962 181.194529 158.020002 180.456286 158.020002 179.686624 
C 158.020002 178.916961 158.019962 178.178719 158.019892 177.634485 
C 158.019821 177.090252 158.019725 176.784461 158.019625 176.784461 
C 158.019525 176.784461 158.01943 177.090252 158.019359 177.634485 
C 158.019288 178.178719 158.019249 178.916961 158.019249 179.686624 
C 158.019249 180.456286 158.019288 181.194529 158.019359 181.738762 
C 158.01943 182.282996 158.019525 182.588786 158.019625 182.588786 
z
" clip-path="url(#p68d81f6917)" style="fill: #ff7f0e; opacity: 0.5; stroke: #ff7f0e; stroke-linejoin: miter"/>
   </g>
   <g id="patch_20">
    <path d="M 236.216106 182.400676 
C 236.216124 182.400676 236.216141 182.09506 236.216154 181.551136 
C 236.216167 181.007213 236.216174 180.269391 236.216174 179.500167 
C 236.216174 178.730943 236.216167 177.99312 236.216154 177.449197 
C 236.216141 176.905273 236.216124 176.599658 236.216106 176.599658 
C 236.216088 176.599658 236.21607 176.905273 236.216057 177.449197 
C 236.216045 177.99312 236.216038 178.730943 236.216038 179.500167 
C 236.216038 180.269391 236.216045 181.007213 236.216057 181.551136 
C 236.21607 182.09506 236.216088 182.400676 236.216106 182.400676 
z
" clip-path="url(#p68d81f6917)" style="fill: #ff7f0e; opacity: 0.5; stroke: #ff7f0e; stroke-linejoin: miter"/>
   </g>
   <g id="patch_21">
    <path d="M 320.402925 180.683672 
C 320.402926 180.683672 320.402928 180.484352 320.40293 180.129609 
C 320.402931 179.774866 320.402932 179.293664 320.402932 178.791982 
C 320.402932 178.2903 320.402931 177.809098 320.40293 177.454355 
C 320.402928 177.099612 320.402926 176.900292 320.402925 176.900292 
C 320.402923 176.900292 320.402921 177.099612 320.40292 177.454355 
C 320.402918 177.809098 320.402918 178.2903 320.402918 178.791982 
C 320.402918 179.293664 320.402918 179.774866 320.40292 180.129609 
C 320.402921 180.484352 320.402923 180.683672 320.402925 180.683672 
z
" clip-path="url(#p68d81f6917)" style="fill: #ff7f0e; opacity: 0.5; stroke: #ff7f0e; stroke-linejoin: miter"/>
   </g>
   <g id="patch_22">
    <path d="M 323.421279 219.341431 
C 323.421291 219.341431 323.421301 218.065909 323.421309 215.795785 
C 323.421317 213.525662 323.421322 210.446281 323.421322 207.235841 
C 323.421322 204.025401 323.421317 200.94602 323.421309 198.675896 
C 323.421301 196.405773 323.421291 195.130251 323.421279 195.130251 
C 323.421268 195.130251 323.421257 196.405773 323.42125 198.675896 
C 323.421242 200.94602 323.421237 204.025401 323.421237 207.235841 
C 323.421237 210.446281 323.421242 213.525662 323.42125 215.795785 
C 323.421257 218.065909 323.421268 219.341431 323.421279 219.341431 
z
" clip-path="url(#p68d81f6917)" style="fill: #ff7f0e; opacity: 0.5; stroke: #ff7f0e; stroke-linejoin: miter"/>
   </g>
   <g id="PathCollection_3">
    <defs>
     <path id="mbdc20148a6" d="M 0 3 
C 0.795609 3 1.55874 2.683901 2.12132 2.12132 
C 2.683901 1.55874 3 0.795609 3 0 
C 3 -0.795609 2.683901 -1.55874 2.12132 -2.12132 
C 1.55874 -2.683901 0.795609 -3 0 -3 
C -0.795609 -3 -1.55874 -2.683901 -2.12132 -2.12132 
C -2.683901 -1.55874 -3 -0.795609 -3 0 
C -3 0.795609 -2.683901 1.55874 -2.12132 2.12132 
C -1.55874 2.683901 -0.795609 3 0 3 
z
" style="stroke: #2ca02c"/>
    </defs>
    <g clip-path="url(#p68d81f6917)">
     <use xlink:href="#mbdc20148a6" x="95.768936" y="24.034502" style="fill: #2ca02c; stroke: #2ca02c"/>
     <use xlink:href="#mbdc20148a6" x="132.263006" y="23.809522" style="fill: #2ca02c; stroke: #2ca02c"/>
     <use xlink:href="#mbdc20148a6" x="224.777834" y="23.453434" style="fill: #2ca02c; stroke: #2ca02c"/>
     <use xlink:href="#mbdc20148a6" x="319.36021" y="27.093952" style="fill: #2ca02c; stroke: #2ca02c"/>
     <use xlink:href="#mbdc20148a6" x="323.770371" y="85.008311" style="fill: #2ca02c; stroke: #2ca02c"/>
     <use xlink:href="#mbdc20148a6" x="64.153062" y="156.925898" style="fill: #2ca02c; stroke: #2ca02c"/>
     <use xlink:href="#mbdc20148a6" x="117.154904" y="160.769963" style="fill: #2ca02c; stroke: #2ca02c"/>
     <use xlink:href="#mbdc20148a6" x="220.107679" y="169.725796" style="fill: #2ca02c; stroke: #2ca02c"/>
     <use xlink:href="#mbdc20148a6" x="312.907589" y="172.465825" style="fill: #2ca02c; stroke: #2ca02c"/>
     <use xlink:href="#mbdc20148a6" x="317.887067" y="201.065617" style="fill: #2ca02c; stroke: #2ca02c"/>
    </g>
   </g>
   <g id="patch_23">
    <path d="M 95.768936 26.071843 
C 95.769209 26.071843 95.769472 25.857176 95.769665 25.47512 
C 95.769858 25.093064 95.769967 24.574811 95.769967 24.034502 
C 95.769967 23.494193 95.769858 22.975941 95.769665 22.593884 
C 95.769472 22.211828 95.769209 21.997161 95.768936 21.997161 
C 95.768662 21.997161 95.7684 22.211828 95.768207 22.593884 
C 95.768013 22.975941 95.767905 23.494193 95.767905 24.034502 
C 95.767905 24.574811 95.768013 25.093064 95.768207 25.47512 
C 95.7684 25.857176 95.768662 26.071843 95.768936 26.071843 
z
" clip-path="url(#p68d81f6917)" style="fill: #2ca02c; opacity: 0.5; stroke: #2ca02c; stroke-linejoin: miter"/>
   </g>
   <g id="patch_24">
    <path d="M 132.263006 25.672982 
C 132.263119 25.672982 132.263227 25.476636 132.263307 25.127187 
C 132.263386 24.777738 132.263431 24.303718 132.263431 23.809522 
C 132.263431 23.315327 132.263386 22.841307 132.263307 22.491858 
C 132.263227 22.142409 132.263119 21.946063 132.263006 21.946063 
C 132.262894 21.946063 132.262786 22.142409 132.262706 22.491858 
C 132.262626 22.841307 132.262582 23.315327 132.262582 23.809522 
C 132.262582 24.303718 132.262626 24.777738 132.262706 25.127187 
C 132.262786 25.476636 132.262894 25.672982 132.263006 25.672982 
z
" clip-path="url(#p68d81f6917)" style="fill: #2ca02c; opacity: 0.5; stroke: #2ca02c; stroke-linejoin: miter"/>
   </g>
   <g id="patch_25">
    <path d="M 224.777834 25.353622 
C 224.777849 25.353622 224.777864 25.153406 224.777875 24.79707 
C 224.777885 24.440733 224.777891 23.95737 224.777891 23.453434 
C 224.777891 22.949498 224.777885 22.466134 224.777875 22.109798 
C 224.777864 21.753461 224.777849 21.553245 224.777834 21.553245 
C 224.777819 21.553245 224.777804 21.753461 224.777794 22.109798 
C 224.777783 22.466134 224.777777 22.949498 224.777777 23.453434 
C 224.777777 23.95737 224.777783 24.440733 224.777794 24.79707 
C 224.777804 25.153406 224.777819 25.353622 224.777834 25.353622 
z
" clip-path="url(#p68d81f6917)" style="fill: #2ca02c; opacity: 0.5; stroke: #2ca02c; stroke-linejoin: miter"/>
   </g>
   <g id="patch_26">
    <path d="M 319.36021 31.661095 
C 319.360215 31.661095 319.360219 31.179872 319.360222 30.32341 
C 319.360226 29.466947 319.360227 28.305172 319.360227 27.093952 
C 319.360227 25.882731 319.360226 24.720956 319.360222 23.864494 
C 319.360219 23.008031 319.360215 22.526808 319.36021 22.526808 
C 319.360205 22.526808 319.360201 23.008031 319.360198 23.864494 
C 319.360194 24.720956 319.360193 25.882731 319.360193 27.093952 
C 319.360193 28.305172 319.360194 29.466947 319.360198 30.32341 
C 319.360201 31.179872 319.360205 31.661095 319.36021 31.661095 
z
" clip-path="url(#p68d81f6917)" style="fill: #2ca02c; opacity: 0.5; stroke: #2ca02c; stroke-linejoin: miter"/>
   </g>
   <g id="patch_27">
    <path d="M 323.770371 107.883575 
C 323.770392 107.883575 323.770412 105.473293 323.770427 101.183565 
C 323.770442 96.893838 323.77045 91.074902 323.77045 85.008311 
C 323.77045 78.94172 323.770442 73.122784 323.770427 68.833056 
C 323.770412 64.543329 323.770392 62.133046 323.770371 62.133046 
C 323.77035 62.133046 323.77033 64.543329 323.770315 68.833056 
C 323.7703 73.122784 323.770292 78.94172 323.770292 85.008311 
C 323.770292 91.074902 323.7703 96.893838 323.770315 101.183565 
C 323.77033 105.473293 323.77035 107.883575 323.770371 107.883575 
z
" clip-path="url(#p68d81f6917)" style="fill: #2ca02c; opacity: 0.5; stroke: #2ca02c; stroke-linejoin: miter"/>
   </g>
   <g id="patch_28">
    <path d="M 64.153062 169.208133 
C 64.156353 169.208133 64.15951 167.913999 64.161837 165.61075 
C 64.164164 163.3075 64.165471 160.183185 64.165471 156.925898 
C 64.165471 153.668612 64.164164 150.544297 64.161837 148.241047 
C 64.15951 145.937798 64.156353 144.643664 64.153062 144.643664 
C 64.149771 144.643664 64.146614 145.937798 64.144286 148.241047 
C 64.141958 150.544297 64.14065 153.668612 64.14065 156.925898 
C 64.14065 160.183185 64.141958 163.3075 64.144286 165.61075 
C 64.146614 167.913999 64.149771 169.208133 64.153062 169.208133 
z
" clip-path="url(#p68d81f6917)" style="fill: #2ca02c; opacity: 0.5; stroke: #2ca02c; stroke-linejoin: miter"/>
   </g>
   <g id="patch_29">
    <path d="M 117.154904 172.695808 
C 117.155907 172.695808 117.156869 171.439226 117.157578 169.202809 
C 117.158287 166.966392 117.158685 163.932734 117.158685 160.769963 
C 117.158685 157.607191 117.158287 154.573533 117.157578 152.337116 
C 117.156869 150.100699 117.155907 148.844117 117.154904 148.844117 
C 117.153901 148.844117 117.152939 150.100699 117.15223 152.337116 
C 117.151521 154.573533 117.151122 157.607191 117.151122 160.769963 
C 117.151122 163.932734 117.151521 166.966392 117.15223 169.202809 
C 117.152939 171.439226 117.153901 172.695808 117.154904 172.695808 
z
" clip-path="url(#p68d81f6917)" style="fill: #2ca02c; opacity: 0.5; stroke: #2ca02c; stroke-linejoin: miter"/>
   </g>
   <g id="patch_30">
    <path d="M 220.107679 180.323242 
C 220.107773 180.323242 220.107863 179.206629 220.107929 177.219322 
C 220.107995 175.232016 220.108033 172.536272 220.108033 169.725796 
C 220.108033 166.915321 220.107995 164.219577 220.107929 162.23227 
C 220.107863 160.244964 220.107773 159.12835 220.107679 159.12835 
C 220.107585 159.12835 220.107495 160.244964 220.107429 162.23227 
C 220.107363 164.219577 220.107325 166.915321 220.107325 169.725796 
C 220.107325 172.536272 220.107363 175.232016 220.107429 177.219322 
C 220.107495 179.206629 220.107585 180.323242 220.107679 180.323242 
z
" clip-path="url(#p68d81f6917)" style="fill: #2ca02c; opacity: 0.5; stroke: #2ca02c; stroke-linejoin: miter"/>
   </g>
   <g id="patch_31">
    <path d="M 312.907589 184.052501 
C 312.907602 184.052501 312.907615 182.831656 312.907624 180.658842 
C 312.907634 178.486028 312.907639 175.538647 312.907639 172.465825 
C 312.907639 169.393002 312.907634 166.445621 312.907624 164.272807 
C 312.907615 162.099994 312.907602 160.879149 312.907589 160.879149 
C 312.907575 160.879149 312.907562 162.099994 312.907553 164.272807 
C 312.907543 166.445621 312.907538 169.393002 312.907538 172.465825 
C 312.907538 175.538647 312.907543 178.486028 312.907553 180.658842 
C 312.907562 182.831656 312.907575 184.052501 312.907589 184.052501 
z
" clip-path="url(#p68d81f6917)" style="fill: #2ca02c; opacity: 0.5; stroke: #2ca02c; stroke-linejoin: miter"/>
   </g>
   <g id="patch_32">
    <path d="M 317.887067 220.800371 
C 317.887087 220.800371 317.887107 218.720993 317.887122 215.020195 
C 317.887136 211.319398 317.887145 206.299335 317.887145 201.065617 
C 317.887145 195.831899 317.887136 190.811837 317.887122 187.111039 
C 317.887107 183.410242 317.887087 181.330864 317.887067 181.330864 
C 317.887046 181.330864 317.887027 183.410242 317.887012 187.111039 
C 317.886997 190.811837 317.886989 195.831899 317.886989 201.065617 
C 317.886989 206.299335 317.886997 211.319398 317.887012 215.020195 
C 317.887027 218.720993 317.887046 220.800371 317.887067 220.800371 
z
" clip-path="url(#p68d81f6917)" style="fill: #2ca02c; opacity: 0.5; stroke: #2ca02c; stroke-linejoin: miter"/>
   </g>
   <g id="PathCollection_4">
    <defs>
     <path id="mc25da966a9" d="M 0 3 
C 0.795609 3 1.55874 2.683901 2.12132 2.12132 
C 2.683901 1.55874 3 0.795609 3 0 
C 3 -0.795609 2.683901 -1.55874 2.12132 -2.12132 
C 1.55874 -2.683901 0.795609 -3 0 -3 
C -0.795609 -3 -1.55874 -2.683901 -2.12132 -2.12132 
C -2.683901 -1.55874 -3 -0.795609 -3 0 
C -3 0.795609 -2.683901 1.55874 -2.12132 2.12132 
C -1.55874 2.683901 -0.795609 3 0 3 
z
" style="stroke: #d62728"/>
    </defs>
    <g clip-path="url(#p68d81f6917)">
     <use xlink:href="#mc25da966a9" x="96.78471" y="25.255392" style="fill: #d62728; stroke: #d62728"/>
     <use xlink:href="#mc25da966a9" x="154.947001" y="24.195737" style="fill: #d62728; stroke: #d62728"/>
     <use xlink:href="#mc25da966a9" x="253.640573" y="23.703627" style="fill: #d62728; stroke: #d62728"/>
     <use xlink:href="#mc25da966a9" x="337.173931" y="23.631783" style="fill: #d62728; stroke: #d62728"/>
     <use xlink:href="#mc25da966a9" x="336.871351" y="192.114136" style="fill: #d62728; stroke: #d62728"/>
     <use xlink:href="#mc25da966a9" x="73.889259" y="181.907992" style="fill: #d62728; stroke: #d62728"/>
     <use xlink:href="#mc25da966a9" x="150.849129" y="176.238044" style="fill: #d62728; stroke: #d62728"/>
     <use xlink:href="#mc25da966a9" x="253.244195" y="171.94831" style="fill: #d62728; stroke: #d62728"/>
     <use xlink:href="#mc25da966a9" x="336.223683" y="170.769385" style="fill: #d62728; stroke: #d62728"/>
     <use xlink:href="#mc25da966a9" x="335.277158" y="235.681388" style="fill: #d62728; stroke: #d62728"/>
    </g>
   </g>
   <g id="patch_33">
    <path d="M 96.78471 27.590366 
C 96.785016 27.590366 96.78531 27.344339 96.785527 26.906468 
C 96.785744 26.468597 96.785866 25.874634 96.785866 25.255392 
C 96.785866 24.636149 96.785744 24.042186 96.785527 23.604315 
C 96.78531 23.166445 96.785016 22.920417 96.78471 22.920417 
C 96.784403 22.920417 96.784109 23.166445 96.783892 23.604315 
C 96.783676 24.042186 96.783554 24.636149 96.783554 25.255392 
C 96.783554 25.874634 96.783676 26.468597 96.783892 26.906468 
C 96.784109 27.344339 96.784403 27.590366 96.78471 27.590366 
z
" clip-path="url(#p68d81f6917)" style="fill: #d62728; opacity: 0.5; stroke: #d62728; stroke-linejoin: miter"/>
   </g>
   <g id="patch_34">
    <path d="M 154.947001 26.227654 
C 154.947076 26.227654 154.947148 26.013558 154.9472 25.632519 
C 154.947253 25.25148 154.947283 24.734608 154.947283 24.195737 
C 154.947283 23.656866 154.947253 23.139994 154.9472 22.758955 
C 154.947148 22.377916 154.947076 22.16382 154.947001 22.16382 
C 154.946926 22.16382 154.946855 22.377916 154.946802 22.758955 
C 154.946749 23.139994 154.946719 23.656866 154.946719 24.195737 
C 154.946719 24.734608 154.946749 25.25148 154.946802 25.632519 
C 154.946855 26.013558 154.946926 26.227654 154.947001 26.227654 
z
" clip-path="url(#p68d81f6917)" style="fill: #d62728; opacity: 0.5; stroke: #d62728; stroke-linejoin: miter"/>
   </g>
   <g id="patch_35">
    <path d="M 253.640573 25.903475 
C 253.640582 25.903475 253.640591 25.671685 253.640598 25.259154 
C 253.640604 24.846624 253.640608 24.287033 253.640608 23.703627 
C 253.640608 23.12022 253.640604 22.56063 253.640598 22.148099 
C 253.640591 21.735568 253.640582 21.503778 253.640573 21.503778 
C 253.640564 21.503778 253.640555 21.735568 253.640548 22.148099 
C 253.640541 22.56063 253.640538 23.12022 253.640538 23.703627 
C 253.640538 24.287033 253.640541 24.846624 253.640548 25.259154 
C 253.640555 25.671685 253.640564 25.903475 253.640573 25.903475 
z
" clip-path="url(#p68d81f6917)" style="fill: #d62728; opacity: 0.5; stroke: #d62728; stroke-linejoin: miter"/>
   </g>
   <g id="patch_36">
    <path d="M 337.173931 25.208642 
C 337.173932 25.208642 337.173933 25.042494 337.173934 24.74679 
C 337.173935 24.451087 337.173935 24.049971 337.173935 23.631783 
C 337.173935 23.213595 337.173935 22.812478 337.173934 22.516775 
C 337.173933 22.221071 337.173932 22.054923 337.173931 22.054923 
C 337.17393 22.054923 337.173929 22.221071 337.173929 22.516775 
C 337.173928 22.812478 337.173927 23.213595 337.173927 23.631783 
C 337.173927 24.049971 337.173928 24.451087 337.173929 24.74679 
C 337.173929 25.042494 337.17393 25.208642 337.173931 25.208642 
z
" clip-path="url(#p68d81f6917)" style="fill: #d62728; opacity: 0.5; stroke: #d62728; stroke-linejoin: miter"/>
   </g>
   <g id="patch_37">
    <path d="M 336.871351 198.396566 
C 336.871355 198.396566 336.87136 197.734609 336.871363 196.556485 
C 336.871366 195.37836 336.871367 193.780256 336.871367 192.114136 
C 336.871367 190.448016 336.871366 188.849912 336.871363 187.671788 
C 336.87136 186.493663 336.871355 185.831707 336.871351 185.831707 
C 336.871347 185.831707 336.871343 186.493663 336.871339 187.671788 
C 336.871336 188.849912 336.871335 190.448016 336.871335 192.114136 
C 336.871335 193.780256 336.871336 195.37836 336.871339 196.556485 
C 336.871343 197.734609 336.871347 198.396566 336.871351 198.396566 
z
" clip-path="url(#p68d81f6917)" style="fill: #d62728; opacity: 0.5; stroke: #d62728; stroke-linejoin: miter"/>
   </g>
   <g id="patch_38">
    <path d="M 73.889259 190.293973 
C 73.891075 190.293973 73.892817 189.410373 73.894101 187.837776 
C 73.895385 186.265179 73.896107 184.131981 73.896107 181.907992 
C 73.896107 179.684004 73.895385 177.550806 73.894101 175.978209 
C 73.892817 174.405612 73.891075 173.522012 73.889259 173.522012 
C 73.887442 173.522012 73.8857 174.405612 73.884416 175.978209 
C 73.883131 177.550806 73.88241 179.684004 73.88241 181.907992 
C 73.88241 184.131981 73.883131 186.265179 73.884416 187.837776 
C 73.8857 189.410373 73.887442 190.293973 73.889259 190.293973 
z
" clip-path="url(#p68d81f6917)" style="fill: #d62728; opacity: 0.5; stroke: #d62728; stroke-linejoin: miter"/>
   </g>
   <g id="patch_39">
    <path d="M 150.849129 184.727798 
C 150.849471 184.727798 150.849799 183.833264 150.85004 182.241207 
C 150.850282 180.649149 150.850418 178.489553 150.850418 176.238044 
C 150.850418 173.986535 150.850282 171.826939 150.85004 170.234881 
C 150.849799 168.642824 150.849471 167.74829 150.849129 167.74829 
C 150.848788 167.74829 150.84846 168.642824 150.848218 170.234881 
C 150.847976 171.826939 150.847841 173.986535 150.847841 176.238044 
C 150.847841 178.489553 150.847976 180.649149 150.848218 182.241207 
C 150.84846 183.833264 150.848788 184.727798 150.849129 184.727798 
z
" clip-path="url(#p68d81f6917)" style="fill: #d62728; opacity: 0.5; stroke: #d62728; stroke-linejoin: miter"/>
   </g>
   <g id="patch_40">
    <path d="M 253.244195 177.587153 
C 253.244219 177.587153 253.244242 176.993009 253.244259 175.935574 
C 253.244276 174.878139 253.244286 173.443749 253.244286 171.94831 
C 253.244286 170.452871 253.244276 169.018481 253.244259 167.961046 
C 253.244242 166.903611 253.244219 166.309467 253.244195 166.309467 
C 253.24417 166.309467 253.244147 166.903611 253.24413 167.961046 
C 253.244113 169.018481 253.244103 170.452871 253.244103 171.94831 
C 253.244103 173.443749 253.244113 174.878139 253.24413 175.935574 
C 253.244147 176.993009 253.24417 177.587153 253.244195 177.587153 
z
" clip-path="url(#p68d81f6917)" style="fill: #d62728; opacity: 0.5; stroke: #d62728; stroke-linejoin: miter"/>
   </g>
   <g id="patch_41">
    <path d="M 336.223683 172.67447 
C 336.223684 172.67447 336.223685 172.473738 336.223686 172.116483 
C 336.223687 171.759229 336.223688 171.274619 336.223688 170.769385 
C 336.223688 170.264151 336.223687 169.779541 336.223686 169.422287 
C 336.223685 169.065032 336.223684 168.8643 336.223683 168.8643 
C 336.223681 168.8643 336.22368 169.065032 336.223679 169.422287 
C 336.223678 169.779541 336.223678 170.264151 336.223678 170.769385 
C 336.223678 171.274619 336.223678 171.759229 336.223679 172.116483 
C 336.22368 172.473738 336.223681 172.67447 336.223683 172.67447 
z
" clip-path="url(#p68d81f6917)" style="fill: #d62728; opacity: 0.5; stroke: #d62728; stroke-linejoin: miter"/>
   </g>
   <g id="patch_42">
    <path d="M 335.277158 240.91238 
C 335.277162 240.91238 335.277165 240.36121 335.277168 239.380258 
C 335.27717 238.399306 335.277172 237.068663 335.277172 235.681388 
C 335.277172 234.294112 335.27717 232.96347 335.277168 231.982518 
C 335.277165 231.001566 335.277162 230.450396 335.277158 230.450396 
C 335.277154 230.450396 335.277151 231.001566 335.277148 231.982518 
C 335.277145 232.96347 335.277144 234.294112 335.277144 235.681388 
C 335.277144 237.068663 335.277145 238.399306 335.277148 239.380258 
C 335.277151 240.36121 335.277154 240.91238 335.277158 240.91238 
z
" clip-path="url(#p68d81f6917)" style="fill: #d62728; opacity: 0.5; stroke: #d62728; stroke-linejoin: miter"/>
   </g>
   <g id="PathCollection_5">
    <defs>
     <path id="m675a85be37" d="M 0 3 
C 0.795609 3 1.55874 2.683901 2.12132 2.12132 
C 2.683901 1.55874 3 0.795609 3 0 
C 3 -0.795609 2.683901 -1.55874 2.12132 -2.12132 
C 1.55874 -2.683901 0.795609 -3 0 -3 
C -0.795609 -3 -1.55874 -2.683901 -2.12132 -2.12132 
C -2.683901 -1.55874 -3 -0.795609 -3 0 
C -3 0.795609 -2.683901 1.55874 -2.12132 2.12132 
C -1.55874 2.683901 -0.795609 3 0 3 
z
" style="stroke: #9467bd"/>
    </defs>
    <g clip-path="url(#p68d81f6917)">
     <use xlink:href="#m675a85be37" x="85.135365" y="23.230352" style="fill: #9467bd; stroke: #9467bd"/>
     <use xlink:href="#m675a85be37" x="129.477847" y="23.675673" style="fill: #9467bd; stroke: #9467bd"/>
     <use xlink:href="#m675a85be37" x="225.239658" y="23.415675" style="fill: #9467bd; stroke: #9467bd"/>
     <use xlink:href="#m675a85be37" x="318.550774" y="25.302686" style="fill: #9467bd; stroke: #9467bd"/>
     <use xlink:href="#m675a85be37" x="321.890005" y="72.933065" style="fill: #9467bd; stroke: #9467bd"/>
     <use xlink:href="#m675a85be37" x="56.644075" y="170.57719" style="fill: #9467bd; stroke: #9467bd"/>
     <use xlink:href="#m675a85be37" x="115.410374" y="163.943815" style="fill: #9467bd; stroke: #9467bd"/>
     <use xlink:href="#m675a85be37" x="213.999266" y="157.642874" style="fill: #9467bd; stroke: #9467bd"/>
     <use xlink:href="#m675a85be37" x="309.777872" y="159.970868" style="fill: #9467bd; stroke: #9467bd"/>
     <use xlink:href="#m675a85be37" x="315.487097" y="176.027571" style="fill: #9467bd; stroke: #9467bd"/>
    </g>
   </g>
   <g id="patch_43">
    <path d="M 85.135365 24.697199 
C 85.135613 24.697199 85.135852 24.542643 85.136027 24.267569 
C 85.136203 23.992496 85.136302 23.619364 85.136302 23.230352 
C 85.136302 22.84134 85.136203 22.468208 85.136027 22.193134 
C 85.135852 21.918061 85.135613 21.763505 85.135365 21.763505 
C 85.135117 21.763505 85.134878 21.918061 85.134703 22.193134 
C 85.134527 22.468208 85.134428 22.84134 85.134428 23.230352 
C 85.134428 23.619364 85.134527 23.992496 85.134703 24.267569 
C 85.134878 24.542643 85.135117 24.697199 85.135365 24.697199 
z
" clip-path="url(#p68d81f6917)" style="fill: #9467bd; opacity: 0.5; stroke: #9467bd; stroke-linejoin: miter"/>
   </g>
   <g id="patch_44">
    <path d="M 129.477847 25.394922 
C 129.477957 25.394922 129.478063 25.213771 129.478141 24.891366 
C 129.47822 24.56896 129.478263 24.131623 129.478263 23.675673 
C 129.478263 23.219723 129.47822 22.782386 129.478141 22.459981 
C 129.478063 22.137576 129.477957 21.956425 129.477847 21.956425 
C 129.477737 21.956425 129.477631 22.137576 129.477553 22.459981 
C 129.477474 22.782386 129.477431 23.219723 129.477431 23.675673 
C 129.477431 24.131623 129.477474 24.56896 129.477553 24.891366 
C 129.477631 25.213771 129.477737 25.394922 129.477847 25.394922 
z
" clip-path="url(#p68d81f6917)" style="fill: #9467bd; opacity: 0.5; stroke: #9467bd; stroke-linejoin: miter"/>
   </g>
   <g id="patch_45">
    <path d="M 225.239658 24.949421 
C 225.23967 24.949421 225.239682 24.787816 225.23969 24.500197 
C 225.239699 24.212578 225.239704 23.822429 225.239704 23.415675 
C 225.239704 23.008921 225.239699 22.618771 225.23969 22.331153 
C 225.239682 22.043534 225.23967 21.881929 225.239658 21.881929 
C 225.239646 21.881929 225.239634 22.043534 225.239626 22.331153 
C 225.239617 22.618771 225.239612 23.008921 225.239612 23.415675 
C 225.239612 23.822429 225.239617 24.212578 225.239626 24.500197 
C 225.239634 24.787816 225.239646 24.949421 225.239658 24.949421 
z
" clip-path="url(#p68d81f6917)" style="fill: #9467bd; opacity: 0.5; stroke: #9467bd; stroke-linejoin: miter"/>
   </g>
   <g id="patch_46">
    <path d="M 318.550774 27.942958 
C 318.550777 27.942958 318.55078 27.664762 318.550782 27.16964 
C 318.550784 26.674518 318.550785 26.002894 318.550785 25.302686 
C 318.550785 24.602477 318.550784 23.930853 318.550782 23.435731 
C 318.55078 22.940609 318.550777 22.662414 318.550774 22.662414 
C 318.550772 22.662414 318.550769 22.940609 318.550767 23.435731 
C 318.550765 23.930853 318.550764 24.602477 318.550764 25.302686 
C 318.550764 26.002894 318.550765 26.674518 318.550767 27.16964 
C 318.550769 27.664762 318.550772 27.942958 318.550774 27.942958 
z
" clip-path="url(#p68d81f6917)" style="fill: #9467bd; opacity: 0.5; stroke: #9467bd; stroke-linejoin: miter"/>
   </g>
   <g id="patch_47">
    <path d="M 321.890005 104.194042 
C 321.890035 104.194042 321.890063 100.900189 321.890085 95.037914 
C 321.890106 89.17564 321.890118 81.223573 321.890118 72.933065 
C 321.890118 64.642557 321.890106 56.690491 321.890085 50.828217 
C 321.890063 44.965942 321.890035 41.672088 321.890005 41.672088 
C 321.889975 41.672088 321.889946 44.965942 321.889925 50.828217 
C 321.889904 56.690491 321.889892 64.642557 321.889892 72.933065 
C 321.889892 81.223573 321.889904 89.17564 321.889925 95.037914 
C 321.889946 100.900189 321.889975 104.194042 321.890005 104.194042 
z
" clip-path="url(#p68d81f6917)" style="fill: #9467bd; opacity: 0.5; stroke: #9467bd; stroke-linejoin: miter"/>
   </g>
   <g id="patch_48">
    <path d="M 56.644075 180.897858 
C 56.647334 180.897858 56.65046 179.810407 56.652764 177.875004 
C 56.655068 175.939601 56.656362 173.314263 56.656362 170.57719 
C 56.656362 167.840117 56.655068 165.214779 56.652764 163.279376 
C 56.65046 161.343973 56.647334 160.256523 56.644075 160.256523 
C 56.640816 160.256523 56.637689 161.343973 56.635385 163.279376 
C 56.633079 165.214779 56.631784 167.840117 56.631784 170.57719 
C 56.631784 173.314263 56.633079 175.939601 56.635385 177.875004 
C 56.637689 179.810407 56.640816 180.897858 56.644075 180.897858 
z
" clip-path="url(#p68d81f6917)" style="fill: #9467bd; opacity: 0.5; stroke: #9467bd; stroke-linejoin: miter"/>
   </g>
   <g id="patch_49">
    <path d="M 115.410374 176.606381 
C 115.41148 176.606381 115.412541 175.272173 115.413323 172.897601 
C 115.414106 170.523029 115.414545 167.301967 115.414545 163.943815 
C 115.414545 160.585663 115.414106 157.3646 115.413323 154.990028 
C 115.412541 152.615457 115.41148 151.281249 115.410374 151.281249 
C 115.409268 151.281249 115.408207 152.615457 115.407424 154.990028 
C 115.406642 157.3646 115.406202 160.585663 115.406202 163.943815 
C 115.406202 167.301967 115.406642 170.523029 115.407424 172.897601 
C 115.408207 175.272173 115.409268 176.606381 115.410374 176.606381 
z
" clip-path="url(#p68d81f6917)" style="fill: #9467bd; opacity: 0.5; stroke: #9467bd; stroke-linejoin: miter"/>
   </g>
   <g id="patch_50">
    <path d="M 213.999266 173.161504 
C 213.999423 173.161504 213.999574 171.526363 213.999685 168.616203 
C 213.999796 165.706042 213.999858 161.758463 213.999858 157.642874 
C 213.999858 153.527286 213.999796 149.579707 213.999685 146.669546 
C 213.999574 143.759385 213.999423 142.124244 213.999266 142.124244 
C 213.999109 142.124244 213.998958 143.759385 213.998847 146.669546 
C 213.998736 149.579707 213.998674 153.527286 213.998674 157.642874 
C 213.998674 161.758463 213.998736 165.706042 213.998847 168.616203 
C 213.998958 171.526363 213.999109 173.161504 213.999266 173.161504 
z
" clip-path="url(#p68d81f6917)" style="fill: #9467bd; opacity: 0.5; stroke: #9467bd; stroke-linejoin: miter"/>
   </g>
   <g id="patch_51">
    <path d="M 309.777872 177.673054 
C 309.777894 177.673054 309.777915 175.80784 309.777931 172.488204 
C 309.777946 169.168567 309.777955 164.665542 309.777955 159.970868 
C 309.777955 155.276193 309.777946 150.773168 309.777931 147.453532 
C 309.777915 144.133896 309.777894 142.268682 309.777872 142.268682 
C 309.77785 142.268682 309.777829 144.133896 309.777813 147.453532 
C 309.777798 150.773168 309.777789 155.276193 309.777789 159.970868 
C 309.777789 164.665542 309.777798 169.168567 309.777813 172.488204 
C 309.777829 175.80784 309.77785 177.673054 309.777872 177.673054 
z
" clip-path="url(#p68d81f6917)" style="fill: #9467bd; opacity: 0.5; stroke: #9467bd; stroke-linejoin: miter"/>
   </g>
   <g id="patch_52">
    <path d="M 315.487097 198.259844 
C 315.487122 198.259844 315.487145 195.917312 315.487163 191.748162 
C 315.48718 187.579013 315.48719 181.923639 315.48719 176.027571 
C 315.48719 170.131504 315.48718 164.47613 315.487163 160.306981 
C 315.487145 156.137831 315.487122 153.795299 315.487097 153.795299 
C 315.487073 153.795299 315.48705 156.137831 315.487032 160.306981 
C 315.487015 164.47613 315.487005 170.131504 315.487005 176.027571 
C 315.487005 181.923639 315.487015 187.579013 315.487032 191.748162 
C 315.48705 195.917312 315.487073 198.259844 315.487097 198.259844 
z
" clip-path="url(#p68d81f6917)" style="fill: #9467bd; opacity: 0.5; stroke: #9467bd; stroke-linejoin: miter"/>
   </g>
   <g id="PathCollection_6">
    <defs>
     <path id="m362e1e84b8" d="M 0 3 
C 0.795609 3 1.55874 2.683901 2.12132 2.12132 
C 2.683901 1.55874 3 0.795609 3 0 
C 3 -0.795609 2.683901 -1.55874 2.12132 -2.12132 
C 1.55874 -2.683901 0.795609 -3 0 -3 
C -0.795609 -3 -1.55874 -2.683901 -2.12132 -2.12132 
C -2.683901 -1.55874 -3 -0.795609 -3 0 
C -3 0.795609 -2.683901 1.55874 -2.12132 2.12132 
C -1.55874 2.683901 -0.795609 3 0 3 
z
" style="stroke: #8c564b"/>
    </defs>
    <g clip-path="url(#p68d81f6917)">
     <use xlink:href="#m362e1e84b8" x="90.150717" y="25.093196" style="fill: #8c564b; stroke: #8c564b"/>
     <use xlink:href="#m362e1e84b8" x="127.421392" y="24.727276" style="fill: #8c564b; stroke: #8c564b"/>
     <use xlink:href="#m362e1e84b8" x="218.595022" y="25.784006" style="fill: #8c564b; stroke: #8c564b"/>
     <use xlink:href="#m362e1e84b8" x="60.546173" y="175.01211" style="fill: #8c564b; stroke: #8c564b"/>
     <use xlink:href="#m362e1e84b8" x="115.523879" y="167.972204" style="fill: #8c564b; stroke: #8c564b"/>
     <use xlink:href="#m362e1e84b8" x="214.122313" y="157.5845" style="fill: #8c564b; stroke: #8c564b"/>
    </g>
   </g>
   <g id="patch_53">
    <path d="M 90.150717 27.381771 
C 90.151064 27.381771 90.151398 27.140632 90.151643 26.711463 
C 90.151889 26.282293 90.152027 25.700133 90.152027 25.093196 
C 90.152027 24.486259 90.151889 23.904099 90.151643 23.47493 
C 90.151398 23.045761 90.151064 22.804622 90.150717 22.804622 
C 90.15037 22.804622 90.150036 23.045761 90.149791 23.47493 
C 90.149545 23.904099 90.149407 24.486259 90.149407 25.093196 
C 90.149407 25.700133 90.149545 26.282293 90.149791 26.711463 
C 90.150036 27.140632 90.15037 27.381771 90.150717 27.381771 
z
" clip-path="url(#p68d81f6917)" style="fill: #8c564b; opacity: 0.5; stroke: #8c564b; stroke-linejoin: miter"/>
   </g>
   <g id="patch_54">
    <path d="M 127.421392 26.890926 
C 127.421538 26.890926 127.421677 26.662951 127.42178 26.257208 
C 127.421882 25.851465 127.42194 25.301083 127.42194 24.727276 
C 127.42194 24.15347 127.421882 23.603087 127.42178 23.197345 
C 127.421677 22.791602 127.421538 22.563626 127.421392 22.563626 
C 127.421247 22.563626 127.421107 22.791602 127.421005 23.197345 
C 127.420902 23.603087 127.420844 24.15347 127.420844 24.727276 
C 127.420844 25.301083 127.420902 25.851465 127.421005 26.257208 
C 127.421107 26.662951 127.421247 26.890926 127.421392 26.890926 
z
" clip-path="url(#p68d81f6917)" style="fill: #8c564b; opacity: 0.5; stroke: #8c564b; stroke-linejoin: miter"/>
   </g>
   <g id="patch_55">
    <path d="M 218.595022 28.070525 
C 218.595043 28.070525 218.595063 27.829603 218.595078 27.400819 
C 218.595093 26.972035 218.595101 26.390398 218.595101 25.784006 
C 218.595101 25.177614 218.595093 24.595976 218.595078 24.167192 
C 218.595063 23.738408 218.595043 23.497486 218.595022 23.497486 
C 218.595001 23.497486 218.594981 23.738408 218.594966 24.167192 
C 218.594952 24.595976 218.594943 25.177614 218.594943 25.784006 
C 218.594943 26.390398 218.594952 26.972035 218.594966 27.400819 
C 218.594981 27.829603 218.595001 28.070525 218.595022 28.070525 
z
" clip-path="url(#p68d81f6917)" style="fill: #8c564b; opacity: 0.5; stroke: #8c564b; stroke-linejoin: miter"/>
   </g>
   <g id="patch_56">
    <path d="M 60.546173 186.436339 
C 60.549485 186.436339 60.552662 185.23261 60.555004 183.09026 
C 60.557346 180.947909 60.558661 178.041851 60.558661 175.01211 
C 60.558661 171.982369 60.557346 169.07631 60.555004 166.93396 
C 60.552662 164.791609 60.549485 163.58788 60.546173 163.58788 
C 60.54286 163.58788 60.539682 164.791609 60.537339 166.93396 
C 60.534997 169.07631 60.53368 171.982369 60.53368 175.01211 
C 60.53368 178.041851 60.534997 180.947909 60.537339 183.09026 
C 60.539682 185.23261 60.54286 186.436339 60.546173 186.436339 
z
" clip-path="url(#p68d81f6917)" style="fill: #8c564b; opacity: 0.5; stroke: #8c564b; stroke-linejoin: miter"/>
   </g>
   <g id="patch_57">
    <path d="M 115.523879 179.681982 
C 115.5249 179.681982 115.525878 178.448166 115.5266 176.252267 
C 115.527322 174.056369 115.527727 171.077673 115.527727 167.972204 
C 115.527727 164.866734 115.527322 161.888038 115.5266 159.69214 
C 115.525878 157.496241 115.5249 156.262425 115.523879 156.262425 
C 115.522859 156.262425 115.52188 157.496241 115.521158 159.69214 
C 115.520437 161.888038 115.520031 164.866734 115.520031 167.972204 
C 115.520031 171.077673 115.520437 174.056369 115.521158 176.252267 
C 115.52188 178.448166 115.522859 179.681982 115.523879 179.681982 
z
" clip-path="url(#p68d81f6917)" style="fill: #8c564b; opacity: 0.5; stroke: #8c564b; stroke-linejoin: miter"/>
   </g>
   <g id="patch_58">
    <path d="M 214.122313 173.572846 
C 214.122474 173.572846 214.122629 171.888213 214.122743 168.889968 
C 214.122857 165.891723 214.122921 161.824659 214.122921 157.5845 
C 214.122921 153.344341 214.122857 149.277277 214.122743 146.279031 
C 214.122629 143.280786 214.122474 141.596153 214.122313 141.596153 
C 214.122152 141.596153 214.121997 143.280786 214.121883 146.279031 
C 214.121769 149.277277 214.121705 153.344341 214.121705 157.5845 
C 214.121705 161.824659 214.121769 165.891723 214.121883 168.889968 
C 214.121997 171.888213 214.122152 173.572846 214.122313 173.572846 
z
" clip-path="url(#p68d81f6917)" style="fill: #8c564b; opacity: 0.5; stroke: #8c564b; stroke-linejoin: miter"/>
   </g>
   <g id="matplotlib.axis_1">
    <g id="xtick_1">
     <g id="line2d_1">
      <path d="M 43.78125 239.128 
L 43.78125 7.2 
" clip-path="url(#p68d81f6917)" style="fill: none; stroke: #b0b0b0; stroke-width: 0.8; stroke-linecap: square"/>
     </g>
     <g id="line2d_2">
      <defs>
       <path id="m248a6a3b03" d="M 0 0 
L 0 3.5 
" style="stroke: #000000; stroke-width: 0.8"/>
      </defs>
      <g>
       <use xlink:href="#m248a6a3b03" x="43.78125" y="239.128" style="stroke: #000000; stroke-width: 0.8"/>
      </g>
     </g>
     <g id="text_1">
      <!-- $\mathdefault{10^{2}}$ -->
      <g transform="translate(34.98125 253.726437) scale(0.1 -0.1)">
       <defs>
        <path id="DejaVuSans-31" d="M 794 531 
L 1825 531 
L 1825 4091 
L 703 3866 
L 703 4441 
L 1819 4666 
L 2450 4666 
L 2450 531 
L 3481 531 
L 3481 0 
L 794 0 
L 794 531 
z
" transform="scale(0.015625)"/>
        <path id="DejaVuSans-30" d="M 2034 4250 
Q 1547 4250 1301 3770 
Q 1056 3291 1056 2328 
Q 1056 1369 1301 889 
Q 1547 409 2034 409 
Q 2525 409 2770 889 
Q 3016 1369 3016 2328 
Q 3016 3291 2770 3770 
Q 2525 4250 2034 4250 
z
M 2034 4750 
Q 2819 4750 3233 4129 
Q 3647 3509 3647 2328 
Q 3647 1150 3233 529 
Q 2819 -91 2034 -91 
Q 1250 -91 836 529 
Q 422 1150 422 2328 
Q 422 3509 836 4129 
Q 1250 4750 2034 4750 
z
" transform="scale(0.015625)"/>
        <path id="DejaVuSans-32" d="M 1228 531 
L 3431 531 
L 3431 0 
L 469 0 
L 469 531 
Q 828 903 1448 1529 
Q 2069 2156 2228 2338 
Q 2531 2678 2651 2914 
Q 2772 3150 2772 3378 
Q 2772 3750 2511 3984 
Q 2250 4219 1831 4219 
Q 1534 4219 1204 4116 
Q 875 4013 500 3803 
L 500 4441 
Q 881 4594 1212 4672 
Q 1544 4750 1819 4750 
Q 2544 4750 2975 4387 
Q 3406 4025 3406 3419 
Q 3406 3131 3298 2873 
Q 3191 2616 2906 2266 
Q 2828 2175 2409 1742 
Q 1991 1309 1228 531 
z
" transform="scale(0.015625)"/>
       </defs>
       <use xlink:href="#DejaVuSans-31" transform="translate(0 0.765625)"/>
       <use xlink:href="#DejaVuSans-30" transform="translate(63.623047 0.765625)"/>
       <use xlink:href="#DejaVuSans-32" transform="translate(128.203125 39.046875) scale(0.7)"/>
      </g>
     </g>
    </g>
    <g id="xtick_2">
     <g id="line2d_3">
      <path d="M 149.084495 239.128 
L 149.084495 7.2 
" clip-path="url(#p68d81f6917)" style="fill: none; stroke: #b0b0b0; stroke-width: 0.8; stroke-linecap: square"/>
     </g>
     <g id="line2d_4">
      <g>
       <use xlink:href="#m248a6a3b03" x="149.084495" y="239.128" style="stroke: #000000; stroke-width: 0.8"/>
      </g>
     </g>
     <g id="text_2">
      <!-- $\mathdefault{10^{3}}$ -->
      <g transform="translate(140.284495 253.726437) scale(0.1 -0.1)">
       <defs>
        <path id="DejaVuSans-33" d="M 2597 2516 
Q 3050 2419 3304 2112 
Q 3559 1806 3559 1356 
Q 3559 666 3084 287 
Q 2609 -91 1734 -91 
Q 1441 -91 1130 -33 
Q 819 25 488 141 
L 488 750 
Q 750 597 1062 519 
Q 1375 441 1716 441 
Q 2309 441 2620 675 
Q 2931 909 2931 1356 
Q 2931 1769 2642 2001 
Q 2353 2234 1838 2234 
L 1294 2234 
L 1294 2753 
L 1863 2753 
Q 2328 2753 2575 2939 
Q 2822 3125 2822 3475 
Q 2822 3834 2567 4026 
Q 2313 4219 1838 4219 
Q 1578 4219 1281 4162 
Q 984 4106 628 3988 
L 628 4550 
Q 988 4650 1302 4700 
Q 1616 4750 1894 4750 
Q 2613 4750 3031 4423 
Q 3450 4097 3450 3541 
Q 3450 3153 3228 2886 
Q 3006 2619 2597 2516 
z
" transform="scale(0.015625)"/>
       </defs>
       <use xlink:href="#DejaVuSans-31" transform="translate(0 0.765625)"/>
       <use xlink:href="#DejaVuSans-30" transform="translate(63.623047 0.765625)"/>
       <use xlink:href="#DejaVuSans-33" transform="translate(128.203125 39.046875) scale(0.7)"/>
      </g>
     </g>
    </g>
    <g id="xtick_3">
     <g id="line2d_5">
      <path d="M 254.38774 239.128 
L 254.38774 7.2 
" clip-path="url(#p68d81f6917)" style="fill: none; stroke: #b0b0b0; stroke-width: 0.8; stroke-linecap: square"/>
     </g>
     <g id="line2d_6">
      <g>
       <use xlink:href="#m248a6a3b03" x="254.38774" y="239.128" style="stroke: #000000; stroke-width: 0.8"/>
      </g>
     </g>
     <g id="text_3">
      <!-- $\mathdefault{10^{4}}$ -->
      <g transform="translate(245.58774 253.726437) scale(0.1 -0.1)">
       <defs>
        <path id="DejaVuSans-34" d="M 2419 4116 
L 825 1625 
L 2419 1625 
L 2419 4116 
z
M 2253 4666 
L 3047 4666 
L 3047 1625 
L 3713 1625 
L 3713 1100 
L 3047 1100 
L 3047 0 
L 2419 0 
L 2419 1100 
L 313 1100 
L 313 1709 
L 2253 4666 
z
" transform="scale(0.015625)"/>
       </defs>
       <use xlink:href="#DejaVuSans-31" transform="translate(0 0.684375)"/>
       <use xlink:href="#DejaVuSans-30" transform="translate(63.623047 0.684375)"/>
       <use xlink:href="#DejaVuSans-34" transform="translate(128.203125 38.965625) scale(0.7)"/>
      </g>
     </g>
    </g>
    <g id="xtick_4">
     <g id="line2d_7">
      <path d="M 359.690986 239.128 
L 359.690986 7.2 
" clip-path="url(#p68d81f6917)" style="fill: none; stroke: #b0b0b0; stroke-width: 0.8; stroke-linecap: square"/>
     </g>
     <g id="line2d_8">
      <g>
       <use xlink:href="#m248a6a3b03" x="359.690986" y="239.128" style="stroke: #000000; stroke-width: 0.8"/>
      </g>
     </g>
     <g id="text_4">
      <!-- $\mathdefault{10^{5}}$ -->
      <g transform="translate(350.890986 253.726437) scale(0.1 -0.1)">
       <defs>
        <path id="DejaVuSans-35" d="M 691 4666 
L 3169 4666 
L 3169 4134 
L 1269 4134 
L 1269 2991 
Q 1406 3038 1543 3061 
Q 1681 3084 1819 3084 
Q 2600 3084 3056 2656 
Q 3513 2228 3513 1497 
Q 3513 744 3044 326 
Q 2575 -91 1722 -91 
Q 1428 -91 1123 -41 
Q 819 9 494 109 
L 494 744 
Q 775 591 1075 516 
Q 1375 441 1709 441 
Q 2250 441 2565 725 
Q 2881 1009 2881 1497 
Q 2881 1984 2565 2268 
Q 2250 2553 1709 2553 
Q 1456 2553 1204 2497 
Q 953 2441 691 2322 
L 691 4666 
z
" transform="scale(0.015625)"/>
       </defs>
       <use xlink:href="#DejaVuSans-31" transform="translate(0 0.684375)"/>
       <use xlink:href="#DejaVuSans-30" transform="translate(63.623047 0.684375)"/>
       <use xlink:href="#DejaVuSans-35" transform="translate(128.203125 38.965625) scale(0.7)"/>
      </g>
     </g>
    </g>
    <g id="xtick_5">
     <g id="line2d_9">
      <path d="M 464.994231 239.128 
L 464.994231 7.2 
" clip-path="url(#p68d81f6917)" style="fill: none; stroke: #b0b0b0; stroke-width: 0.8; stroke-linecap: square"/>
     </g>
     <g id="line2d_10">
      <g>
       <use xlink:href="#m248a6a3b03" x="464.994231" y="239.128" style="stroke: #000000; stroke-width: 0.8"/>
      </g>
     </g>
     <g id="text_5">
      <!-- $\mathdefault{10^{6}}$ -->
      <g transform="translate(456.194231 253.726437) scale(0.1 -0.1)">
       <defs>
        <path id="DejaVuSans-36" d="M 2113 2584 
Q 1688 2584 1439 2293 
Q 1191 2003 1191 1497 
Q 1191 994 1439 701 
Q 1688 409 2113 409 
Q 2538 409 2786 701 
Q 3034 994 3034 1497 
Q 3034 2003 2786 2293 
Q 2538 2584 2113 2584 
z
M 3366 4563 
L 3366 3988 
Q 3128 4100 2886 4159 
Q 2644 4219 2406 4219 
Q 1781 4219 1451 3797 
Q 1122 3375 1075 2522 
Q 1259 2794 1537 2939 
Q 1816 3084 2150 3084 
Q 2853 3084 3261 2657 
Q 3669 2231 3669 1497 
Q 3669 778 3244 343 
Q 2819 -91 2113 -91 
Q 1303 -91 875 529 
Q 447 1150 447 2328 
Q 447 3434 972 4092 
Q 1497 4750 2381 4750 
Q 2619 4750 2861 4703 
Q 3103 4656 3366 4563 
z
" transform="scale(0.015625)"/>
       </defs>
       <use xlink:href="#DejaVuSans-31" transform="translate(0 0.765625)"/>
       <use xlink:href="#DejaVuSans-30" transform="translate(63.623047 0.765625)"/>
       <use xlink:href="#DejaVuSans-36" transform="translate(128.203125 39.046875) scale(0.7)"/>
      </g>
     </g>
    </g>
    <g id="xtick_6">
     <g id="line2d_11">
      <defs>
       <path id="m9703209ba9" d="M 0 0 
L 0 2 
" style="stroke: #000000; stroke-width: 0.6"/>
      </defs>
      <g>
       <use xlink:href="#m9703209ba9" x="75.480685" y="239.128" style="stroke: #000000; stroke-width: 0.6"/>
      </g>
     </g>
    </g>
    <g id="xtick_7">
     <g id="line2d_12">
      <g>
       <use xlink:href="#m9703209ba9" x="94.023666" y="239.128" style="stroke: #000000; stroke-width: 0.6"/>
      </g>
     </g>
    </g>
    <g id="xtick_8">
     <g id="line2d_13">
      <g>
       <use xlink:href="#m9703209ba9" x="107.180121" y="239.128" style="stroke: #000000; stroke-width: 0.6"/>
      </g>
     </g>
    </g>
    <g id="xtick_9">
     <g id="line2d_14">
      <g>
       <use xlink:href="#m9703209ba9" x="117.38506" y="239.128" style="stroke: #000000; stroke-width: 0.6"/>
      </g>
     </g>
    </g>
    <g id="xtick_10">
     <g id="line2d_15">
      <g>
       <use xlink:href="#m9703209ba9" x="125.723102" y="239.128" style="stroke: #000000; stroke-width: 0.6"/>
      </g>
     </g>
    </g>
    <g id="xtick_11">
     <g id="line2d_16">
      <g>
       <use xlink:href="#m9703209ba9" x="132.772816" y="239.128" style="stroke: #000000; stroke-width: 0.6"/>
      </g>
     </g>
    </g>
    <g id="xtick_12">
     <g id="line2d_17">
      <g>
       <use xlink:href="#m9703209ba9" x="138.879556" y="239.128" style="stroke: #000000; stroke-width: 0.6"/>
      </g>
     </g>
    </g>
    <g id="xtick_13">
     <g id="line2d_18">
      <g>
       <use xlink:href="#m9703209ba9" x="144.266083" y="239.128" style="stroke: #000000; stroke-width: 0.6"/>
      </g>
     </g>
    </g>
    <g id="xtick_14">
     <g id="line2d_19">
      <g>
       <use xlink:href="#m9703209ba9" x="180.783931" y="239.128" style="stroke: #000000; stroke-width: 0.6"/>
      </g>
     </g>
    </g>
    <g id="xtick_15">
     <g id="line2d_20">
      <g>
       <use xlink:href="#m9703209ba9" x="199.326912" y="239.128" style="stroke: #000000; stroke-width: 0.6"/>
      </g>
     </g>
    </g>
    <g id="xtick_16">
     <g id="line2d_21">
      <g>
       <use xlink:href="#m9703209ba9" x="212.483366" y="239.128" style="stroke: #000000; stroke-width: 0.6"/>
      </g>
     </g>
    </g>
    <g id="xtick_17">
     <g id="line2d_22">
      <g>
       <use xlink:href="#m9703209ba9" x="222.688305" y="239.128" style="stroke: #000000; stroke-width: 0.6"/>
      </g>
     </g>
    </g>
    <g id="xtick_18">
     <g id="line2d_23">
      <g>
       <use xlink:href="#m9703209ba9" x="231.026347" y="239.128" style="stroke: #000000; stroke-width: 0.6"/>
      </g>
     </g>
    </g>
    <g id="xtick_19">
     <g id="line2d_24">
      <g>
       <use xlink:href="#m9703209ba9" x="238.076061" y="239.128" style="stroke: #000000; stroke-width: 0.6"/>
      </g>
     </g>
    </g>
    <g id="xtick_20">
     <g id="line2d_25">
      <g>
       <use xlink:href="#m9703209ba9" x="244.182802" y="239.128" style="stroke: #000000; stroke-width: 0.6"/>
      </g>
     </g>
    </g>
    <g id="xtick_21">
     <g id="line2d_26">
      <g>
       <use xlink:href="#m9703209ba9" x="249.569328" y="239.128" style="stroke: #000000; stroke-width: 0.6"/>
      </g>
     </g>
    </g>
    <g id="xtick_22">
     <g id="line2d_27">
      <g>
       <use xlink:href="#m9703209ba9" x="286.087176" y="239.128" style="stroke: #000000; stroke-width: 0.6"/>
      </g>
     </g>
    </g>
    <g id="xtick_23">
     <g id="line2d_28">
      <g>
       <use xlink:href="#m9703209ba9" x="304.630157" y="239.128" style="stroke: #000000; stroke-width: 0.6"/>
      </g>
     </g>
    </g>
    <g id="xtick_24">
     <g id="line2d_29">
      <g>
       <use xlink:href="#m9703209ba9" x="317.786611" y="239.128" style="stroke: #000000; stroke-width: 0.6"/>
      </g>
     </g>
    </g>
    <g id="xtick_25">
     <g id="line2d_30">
      <g>
       <use xlink:href="#m9703209ba9" x="327.99155" y="239.128" style="stroke: #000000; stroke-width: 0.6"/>
      </g>
     </g>
    </g>
    <g id="xtick_26">
     <g id="line2d_31">
      <g>
       <use xlink:href="#m9703209ba9" x="336.329592" y="239.128" style="stroke: #000000; stroke-width: 0.6"/>
      </g>
     </g>
    </g>
    <g id="xtick_27">
     <g id="line2d_32">
      <g>
       <use xlink:href="#m9703209ba9" x="343.379306" y="239.128" style="stroke: #000000; stroke-width: 0.6"/>
      </g>
     </g>
    </g>
    <g id="xtick_28">
     <g id="line2d_33">
      <g>
       <use xlink:href="#m9703209ba9" x="349.486047" y="239.128" style="stroke: #000000; stroke-width: 0.6"/>
      </g>
     </g>
    </g>
    <g id="xtick_29">
     <g id="line2d_34">
      <g>
       <use xlink:href="#m9703209ba9" x="354.872573" y="239.128" style="stroke: #000000; stroke-width: 0.6"/>
      </g>
     </g>
    </g>
    <g id="xtick_30">
     <g id="line2d_35">
      <g>
       <use xlink:href="#m9703209ba9" x="391.390421" y="239.128" style="stroke: #000000; stroke-width: 0.6"/>
      </g>
     </g>
    </g>
    <g id="xtick_31">
     <g id="line2d_36">
      <g>
       <use xlink:href="#m9703209ba9" x="409.933402" y="239.128" style="stroke: #000000; stroke-width: 0.6"/>
      </g>
     </g>
    </g>
    <g id="xtick_32">
     <g id="line2d_37">
      <g>
       <use xlink:href="#m9703209ba9" x="423.089856" y="239.128" style="stroke: #000000; stroke-width: 0.6"/>
      </g>
     </g>
    </g>
    <g id="xtick_33">
     <g id="line2d_38">
      <g>
       <use xlink:href="#m9703209ba9" x="433.294795" y="239.128" style="stroke: #000000; stroke-width: 0.6"/>
      </g>
     </g>
    </g>
    <g id="xtick_34">
     <g id="line2d_39">
      <g>
       <use xlink:href="#m9703209ba9" x="441.632837" y="239.128" style="stroke: #000000; stroke-width: 0.6"/>
      </g>
     </g>
    </g>
    <g id="xtick_35">
     <g id="line2d_40">
      <g>
       <use xlink:href="#m9703209ba9" x="448.682552" y="239.128" style="stroke: #000000; stroke-width: 0.6"/>
      </g>
     </g>
    </g>
    <g id="xtick_36">
     <g id="line2d_41">
      <g>
       <use xlink:href="#m9703209ba9" x="454.789292" y="239.128" style="stroke: #000000; stroke-width: 0.6"/>
      </g>
     </g>
    </g>
    <g id="xtick_37">
     <g id="line2d_42">
      <g>
       <use xlink:href="#m9703209ba9" x="460.175818" y="239.128" style="stroke: #000000; stroke-width: 0.6"/>
      </g>
     </g>
    </g>
    <g id="text_6">
     <!-- dataset size (mean) -->
     <g transform="translate(216.663438 267.404562) scale(0.1 -0.1)">
      <defs>
       <path id="DejaVuSans-64" d="M 2906 2969 
L 2906 4863 
L 3481 4863 
L 3481 0 
L 2906 0 
L 2906 525 
Q 2725 213 2448 61 
Q 2172 -91 1784 -91 
Q 1150 -91 751 415 
Q 353 922 353 1747 
Q 353 2572 751 3078 
Q 1150 3584 1784 3584 
Q 2172 3584 2448 3432 
Q 2725 3281 2906 2969 
z
M 947 1747 
Q 947 1113 1208 752 
Q 1469 391 1925 391 
Q 2381 391 2643 752 
Q 2906 1113 2906 1747 
Q 2906 2381 2643 2742 
Q 2381 3103 1925 3103 
Q 1469 3103 1208 2742 
Q 947 2381 947 1747 
z
" transform="scale(0.015625)"/>
       <path id="DejaVuSans-61" d="M 2194 1759 
Q 1497 1759 1228 1600 
Q 959 1441 959 1056 
Q 959 750 1161 570 
Q 1363 391 1709 391 
Q 2188 391 2477 730 
Q 2766 1069 2766 1631 
L 2766 1759 
L 2194 1759 
z
M 3341 1997 
L 3341 0 
L 2766 0 
L 2766 531 
Q 2569 213 2275 61 
Q 1981 -91 1556 -91 
Q 1019 -91 701 211 
Q 384 513 384 1019 
Q 384 1609 779 1909 
Q 1175 2209 1959 2209 
L 2766 2209 
L 2766 2266 
Q 2766 2663 2505 2880 
Q 2244 3097 1772 3097 
Q 1472 3097 1187 3025 
Q 903 2953 641 2809 
L 641 3341 
Q 956 3463 1253 3523 
Q 1550 3584 1831 3584 
Q 2591 3584 2966 3190 
Q 3341 2797 3341 1997 
z
" transform="scale(0.015625)"/>
       <path id="DejaVuSans-74" d="M 1172 4494 
L 1172 3500 
L 2356 3500 
L 2356 3053 
L 1172 3053 
L 1172 1153 
Q 1172 725 1289 603 
Q 1406 481 1766 481 
L 2356 481 
L 2356 0 
L 1766 0 
Q 1100 0 847 248 
Q 594 497 594 1153 
L 594 3053 
L 172 3053 
L 172 3500 
L 594 3500 
L 594 4494 
L 1172 4494 
z
" transform="scale(0.015625)"/>
       <path id="DejaVuSans-73" d="M 2834 3397 
L 2834 2853 
Q 2591 2978 2328 3040 
Q 2066 3103 1784 3103 
Q 1356 3103 1142 2972 
Q 928 2841 928 2578 
Q 928 2378 1081 2264 
Q 1234 2150 1697 2047 
L 1894 2003 
Q 2506 1872 2764 1633 
Q 3022 1394 3022 966 
Q 3022 478 2636 193 
Q 2250 -91 1575 -91 
Q 1294 -91 989 -36 
Q 684 19 347 128 
L 347 722 
Q 666 556 975 473 
Q 1284 391 1588 391 
Q 1994 391 2212 530 
Q 2431 669 2431 922 
Q 2431 1156 2273 1281 
Q 2116 1406 1581 1522 
L 1381 1569 
Q 847 1681 609 1914 
Q 372 2147 372 2553 
Q 372 3047 722 3315 
Q 1072 3584 1716 3584 
Q 2034 3584 2315 3537 
Q 2597 3491 2834 3397 
z
" transform="scale(0.015625)"/>
       <path id="DejaVuSans-65" d="M 3597 1894 
L 3597 1613 
L 953 1613 
Q 991 1019 1311 708 
Q 1631 397 2203 397 
Q 2534 397 2845 478 
Q 3156 559 3463 722 
L 3463 178 
Q 3153 47 2828 -22 
Q 2503 -91 2169 -91 
Q 1331 -91 842 396 
Q 353 884 353 1716 
Q 353 2575 817 3079 
Q 1281 3584 2069 3584 
Q 2775 3584 3186 3129 
Q 3597 2675 3597 1894 
z
M 3022 2063 
Q 3016 2534 2758 2815 
Q 2500 3097 2075 3097 
Q 1594 3097 1305 2825 
Q 1016 2553 972 2059 
L 3022 2063 
z
" transform="scale(0.015625)"/>
       <path id="DejaVuSans-20" transform="scale(0.015625)"/>
       <path id="DejaVuSans-69" d="M 603 3500 
L 1178 3500 
L 1178 0 
L 603 0 
L 603 3500 
z
M 603 4863 
L 1178 4863 
L 1178 4134 
L 603 4134 
L 603 4863 
z
" transform="scale(0.015625)"/>
       <path id="DejaVuSans-7a" d="M 353 3500 
L 3084 3500 
L 3084 2975 
L 922 459 
L 3084 459 
L 3084 0 
L 275 0 
L 275 525 
L 2438 3041 
L 353 3041 
L 353 3500 
z
" transform="scale(0.015625)"/>
       <path id="DejaVuSans-28" d="M 1984 4856 
Q 1566 4138 1362 3434 
Q 1159 2731 1159 2009 
Q 1159 1288 1364 580 
Q 1569 -128 1984 -844 
L 1484 -844 
Q 1016 -109 783 600 
Q 550 1309 550 2009 
Q 550 2706 781 3412 
Q 1013 4119 1484 4856 
L 1984 4856 
z
" transform="scale(0.015625)"/>
       <path id="DejaVuSans-6d" d="M 3328 2828 
Q 3544 3216 3844 3400 
Q 4144 3584 4550 3584 
Q 5097 3584 5394 3201 
Q 5691 2819 5691 2113 
L 5691 0 
L 5113 0 
L 5113 2094 
Q 5113 2597 4934 2840 
Q 4756 3084 4391 3084 
Q 3944 3084 3684 2787 
Q 3425 2491 3425 1978 
L 3425 0 
L 2847 0 
L 2847 2094 
Q 2847 2600 2669 2842 
Q 2491 3084 2119 3084 
Q 1678 3084 1418 2786 
Q 1159 2488 1159 1978 
L 1159 0 
L 581 0 
L 581 3500 
L 1159 3500 
L 1159 2956 
Q 1356 3278 1631 3431 
Q 1906 3584 2284 3584 
Q 2666 3584 2933 3390 
Q 3200 3197 3328 2828 
z
" transform="scale(0.015625)"/>
       <path id="DejaVuSans-6e" d="M 3513 2113 
L 3513 0 
L 2938 0 
L 2938 2094 
Q 2938 2591 2744 2837 
Q 2550 3084 2163 3084 
Q 1697 3084 1428 2787 
Q 1159 2491 1159 1978 
L 1159 0 
L 581 0 
L 581 3500 
L 1159 3500 
L 1159 2956 
Q 1366 3272 1645 3428 
Q 1925 3584 2291 3584 
Q 2894 3584 3203 3211 
Q 3513 2838 3513 2113 
z
" transform="scale(0.015625)"/>
       <path id="DejaVuSans-29" d="M 513 4856 
L 1013 4856 
Q 1481 4119 1714 3412 
Q 1947 2706 1947 2009 
Q 1947 1309 1714 600 
Q 1481 -109 1013 -844 
L 513 -844 
Q 928 -128 1133 580 
Q 1338 1288 1338 2009 
Q 1338 2731 1133 3434 
Q 928 4138 513 4856 
z
" transform="scale(0.015625)"/>
      </defs>
      <use xlink:href="#DejaVuSans-64"/>
      <use xlink:href="#DejaVuSans-61" transform="translate(63.476562 0)"/>
      <use xlink:href="#DejaVuSans-74" transform="translate(124.755859 0)"/>
      <use xlink:href="#DejaVuSans-61" transform="translate(163.964844 0)"/>
      <use xlink:href="#DejaVuSans-73" transform="translate(225.244141 0)"/>
      <use xlink:href="#DejaVuSans-65" transform="translate(277.34375 0)"/>
      <use xlink:href="#DejaVuSans-74" transform="translate(338.867188 0)"/>
      <use xlink:href="#DejaVuSans-20" transform="translate(378.076172 0)"/>
      <use xlink:href="#DejaVuSans-73" transform="translate(409.863281 0)"/>
      <use xlink:href="#DejaVuSans-69" transform="translate(461.962891 0)"/>
      <use xlink:href="#DejaVuSans-7a" transform="translate(489.746094 0)"/>
      <use xlink:href="#DejaVuSans-65" transform="translate(542.236328 0)"/>
      <use xlink:href="#DejaVuSans-20" transform="translate(603.759766 0)"/>
      <use xlink:href="#DejaVuSans-28" transform="translate(635.546875 0)"/>
      <use xlink:href="#DejaVuSans-6d" transform="translate(674.560547 0)"/>
      <use xlink:href="#DejaVuSans-65" transform="translate(771.972656 0)"/>
      <use xlink:href="#DejaVuSans-61" transform="translate(833.496094 0)"/>
      <use xlink:href="#DejaVuSans-6e" transform="translate(894.775391 0)"/>
      <use xlink:href="#DejaVuSans-29" transform="translate(958.154297 0)"/>
     </g>
    </g>
   </g>
   <g id="matplotlib.axis_2">
    <g id="ytick_1">
     <g id="line2d_43">
      <path d="M 43.78125 224.6325 
L 489.26125 224.6325 
" clip-path="url(#p68d81f6917)" style="fill: none; stroke: #b0b0b0; stroke-width: 0.8; stroke-linecap: square"/>
     </g>
     <g id="line2d_44">
      <defs>
       <path id="md94b75f46e" d="M 0 0 
L -3.5 0 
" style="stroke: #000000; stroke-width: 0.8"/>
      </defs>
      <g>
       <use xlink:href="#md94b75f46e" x="43.78125" y="224.6325" style="stroke: #000000; stroke-width: 0.8"/>
      </g>
     </g>
     <g id="text_7">
      <!-- 0.3 -->
      <g transform="translate(20.878125 228.431719) scale(0.1 -0.1)">
       <defs>
        <path id="DejaVuSans-2e" d="M 684 794 
L 1344 794 
L 1344 0 
L 684 0 
L 684 794 
z
" transform="scale(0.015625)"/>
       </defs>
       <use xlink:href="#DejaVuSans-30"/>
       <use xlink:href="#DejaVuSans-2e" transform="translate(63.623047 0)"/>
       <use xlink:href="#DejaVuSans-33" transform="translate(95.410156 0)"/>
      </g>
     </g>
    </g>
    <g id="ytick_2">
     <g id="line2d_45">
      <path d="M 43.78125 195.6415 
L 489.26125 195.6415 
" clip-path="url(#p68d81f6917)" style="fill: none; stroke: #b0b0b0; stroke-width: 0.8; stroke-linecap: square"/>
     </g>
     <g id="line2d_46">
      <g>
       <use xlink:href="#md94b75f46e" x="43.78125" y="195.6415" style="stroke: #000000; stroke-width: 0.8"/>
      </g>
     </g>
     <g id="text_8">
      <!-- 0.4 -->
      <g transform="translate(20.878125 199.440719) scale(0.1 -0.1)">
       <use xlink:href="#DejaVuSans-30"/>
       <use xlink:href="#DejaVuSans-2e" transform="translate(63.623047 0)"/>
       <use xlink:href="#DejaVuSans-34" transform="translate(95.410156 0)"/>
      </g>
     </g>
    </g>
    <g id="ytick_3">
     <g id="line2d_47">
      <path d="M 43.78125 166.6505 
L 489.26125 166.6505 
" clip-path="url(#p68d81f6917)" style="fill: none; stroke: #b0b0b0; stroke-width: 0.8; stroke-linecap: square"/>
     </g>
     <g id="line2d_48">
      <g>
       <use xlink:href="#md94b75f46e" x="43.78125" y="166.6505" style="stroke: #000000; stroke-width: 0.8"/>
      </g>
     </g>
     <g id="text_9">
      <!-- 0.5 -->
      <g transform="translate(20.878125 170.449719) scale(0.1 -0.1)">
       <use xlink:href="#DejaVuSans-30"/>
       <use xlink:href="#DejaVuSans-2e" transform="translate(63.623047 0)"/>
       <use xlink:href="#DejaVuSans-35" transform="translate(95.410156 0)"/>
      </g>
     </g>
    </g>
    <g id="ytick_4">
     <g id="line2d_49">
      <path d="M 43.78125 137.6595 
L 489.26125 137.6595 
" clip-path="url(#p68d81f6917)" style="fill: none; stroke: #b0b0b0; stroke-width: 0.8; stroke-linecap: square"/>
     </g>
     <g id="line2d_50">
      <g>
       <use xlink:href="#md94b75f46e" x="43.78125" y="137.6595" style="stroke: #000000; stroke-width: 0.8"/>
      </g>
     </g>
     <g id="text_10">
      <!-- 0.6 -->
      <g transform="translate(20.878125 141.458719) scale(0.1 -0.1)">
       <use xlink:href="#DejaVuSans-30"/>
       <use xlink:href="#DejaVuSans-2e" transform="translate(63.623047 0)"/>
       <use xlink:href="#DejaVuSans-36" transform="translate(95.410156 0)"/>
      </g>
     </g>
    </g>
    <g id="ytick_5">
     <g id="line2d_51">
      <path d="M 43.78125 108.6685 
L 489.26125 108.6685 
" clip-path="url(#p68d81f6917)" style="fill: none; stroke: #b0b0b0; stroke-width: 0.8; stroke-linecap: square"/>
     </g>
     <g id="line2d_52">
      <g>
       <use xlink:href="#md94b75f46e" x="43.78125" y="108.6685" style="stroke: #000000; stroke-width: 0.8"/>
      </g>
     </g>
     <g id="text_11">
      <!-- 0.7 -->
      <g transform="translate(20.878125 112.467719) scale(0.1 -0.1)">
       <defs>
        <path id="DejaVuSans-37" d="M 525 4666 
L 3525 4666 
L 3525 4397 
L 1831 0 
L 1172 0 
L 2766 4134 
L 525 4134 
L 525 4666 
z
" transform="scale(0.015625)"/>
       </defs>
       <use xlink:href="#DejaVuSans-30"/>
       <use xlink:href="#DejaVuSans-2e" transform="translate(63.623047 0)"/>
       <use xlink:href="#DejaVuSans-37" transform="translate(95.410156 0)"/>
      </g>
     </g>
    </g>
    <g id="ytick_6">
     <g id="line2d_53">
      <path d="M 43.78125 79.6775 
L 489.26125 79.6775 
" clip-path="url(#p68d81f6917)" style="fill: none; stroke: #b0b0b0; stroke-width: 0.8; stroke-linecap: square"/>
     </g>
     <g id="line2d_54">
      <g>
       <use xlink:href="#md94b75f46e" x="43.78125" y="79.6775" style="stroke: #000000; stroke-width: 0.8"/>
      </g>
     </g>
     <g id="text_12">
      <!-- 0.8 -->
      <g transform="translate(20.878125 83.476719) scale(0.1 -0.1)">
       <defs>
        <path id="DejaVuSans-38" d="M 2034 2216 
Q 1584 2216 1326 1975 
Q 1069 1734 1069 1313 
Q 1069 891 1326 650 
Q 1584 409 2034 409 
Q 2484 409 2743 651 
Q 3003 894 3003 1313 
Q 3003 1734 2745 1975 
Q 2488 2216 2034 2216 
z
M 1403 2484 
Q 997 2584 770 2862 
Q 544 3141 544 3541 
Q 544 4100 942 4425 
Q 1341 4750 2034 4750 
Q 2731 4750 3128 4425 
Q 3525 4100 3525 3541 
Q 3525 3141 3298 2862 
Q 3072 2584 2669 2484 
Q 3125 2378 3379 2068 
Q 3634 1759 3634 1313 
Q 3634 634 3220 271 
Q 2806 -91 2034 -91 
Q 1263 -91 848 271 
Q 434 634 434 1313 
Q 434 1759 690 2068 
Q 947 2378 1403 2484 
z
M 1172 3481 
Q 1172 3119 1398 2916 
Q 1625 2713 2034 2713 
Q 2441 2713 2670 2916 
Q 2900 3119 2900 3481 
Q 2900 3844 2670 4047 
Q 2441 4250 2034 4250 
Q 1625 4250 1398 4047 
Q 1172 3844 1172 3481 
z
" transform="scale(0.015625)"/>
       </defs>
       <use xlink:href="#DejaVuSans-30"/>
       <use xlink:href="#DejaVuSans-2e" transform="translate(63.623047 0)"/>
       <use xlink:href="#DejaVuSans-38" transform="translate(95.410156 0)"/>
      </g>
     </g>
    </g>
    <g id="ytick_7">
     <g id="line2d_55">
      <path d="M 43.78125 50.6865 
L 489.26125 50.6865 
" clip-path="url(#p68d81f6917)" style="fill: none; stroke: #b0b0b0; stroke-width: 0.8; stroke-linecap: square"/>
     </g>
     <g id="line2d_56">
      <g>
       <use xlink:href="#md94b75f46e" x="43.78125" y="50.6865" style="stroke: #000000; stroke-width: 0.8"/>
      </g>
     </g>
     <g id="text_13">
      <!-- 0.9 -->
      <g transform="translate(20.878125 54.485719) scale(0.1 -0.1)">
       <defs>
        <path id="DejaVuSans-39" d="M 703 97 
L 703 672 
Q 941 559 1184 500 
Q 1428 441 1663 441 
Q 2288 441 2617 861 
Q 2947 1281 2994 2138 
Q 2813 1869 2534 1725 
Q 2256 1581 1919 1581 
Q 1219 1581 811 2004 
Q 403 2428 403 3163 
Q 403 3881 828 4315 
Q 1253 4750 1959 4750 
Q 2769 4750 3195 4129 
Q 3622 3509 3622 2328 
Q 3622 1225 3098 567 
Q 2575 -91 1691 -91 
Q 1453 -91 1209 -44 
Q 966 3 703 97 
z
M 1959 2075 
Q 2384 2075 2632 2365 
Q 2881 2656 2881 3163 
Q 2881 3666 2632 3958 
Q 2384 4250 1959 4250 
Q 1534 4250 1286 3958 
Q 1038 3666 1038 3163 
Q 1038 2656 1286 2365 
Q 1534 2075 1959 2075 
z
" transform="scale(0.015625)"/>
       </defs>
       <use xlink:href="#DejaVuSans-30"/>
       <use xlink:href="#DejaVuSans-2e" transform="translate(63.623047 0)"/>
       <use xlink:href="#DejaVuSans-39" transform="translate(95.410156 0)"/>
      </g>
     </g>
    </g>
    <g id="ytick_8">
     <g id="line2d_57">
      <path d="M 43.78125 21.6955 
L 489.26125 21.6955 
" clip-path="url(#p68d81f6917)" style="fill: none; stroke: #b0b0b0; stroke-width: 0.8; stroke-linecap: square"/>
     </g>
     <g id="line2d_58">
      <g>
       <use xlink:href="#md94b75f46e" x="43.78125" y="21.6955" style="stroke: #000000; stroke-width: 0.8"/>
      </g>
     </g>
     <g id="text_14">
      <!-- 1.0 -->
      <g transform="translate(20.878125 25.494719) scale(0.1 -0.1)">
       <use xlink:href="#DejaVuSans-31"/>
       <use xlink:href="#DejaVuSans-2e" transform="translate(63.623047 0)"/>
       <use xlink:href="#DejaVuSans-30" transform="translate(95.410156 0)"/>
      </g>
     </g>
    </g>
    <g id="text_15">
     <!-- f1-macro (mean) -->
     <g transform="translate(14.798438 165.265562) rotate(-90) scale(0.1 -0.1)">
      <defs>
       <path id="DejaVuSans-66" d="M 2375 4863 
L 2375 4384 
L 1825 4384 
Q 1516 4384 1395 4259 
Q 1275 4134 1275 3809 
L 1275 3500 
L 2222 3500 
L 2222 3053 
L 1275 3053 
L 1275 0 
L 697 0 
L 697 3053 
L 147 3053 
L 147 3500 
L 697 3500 
L 697 3744 
Q 697 4328 969 4595 
Q 1241 4863 1831 4863 
L 2375 4863 
z
" transform="scale(0.015625)"/>
       <path id="DejaVuSans-2d" d="M 313 2009 
L 1997 2009 
L 1997 1497 
L 313 1497 
L 313 2009 
z
" transform="scale(0.015625)"/>
       <path id="DejaVuSans-63" d="M 3122 3366 
L 3122 2828 
Q 2878 2963 2633 3030 
Q 2388 3097 2138 3097 
Q 1578 3097 1268 2742 
Q 959 2388 959 1747 
Q 959 1106 1268 751 
Q 1578 397 2138 397 
Q 2388 397 2633 464 
Q 2878 531 3122 666 
L 3122 134 
Q 2881 22 2623 -34 
Q 2366 -91 2075 -91 
Q 1284 -91 818 406 
Q 353 903 353 1747 
Q 353 2603 823 3093 
Q 1294 3584 2113 3584 
Q 2378 3584 2631 3529 
Q 2884 3475 3122 3366 
z
" transform="scale(0.015625)"/>
       <path id="DejaVuSans-72" d="M 2631 2963 
Q 2534 3019 2420 3045 
Q 2306 3072 2169 3072 
Q 1681 3072 1420 2755 
Q 1159 2438 1159 1844 
L 1159 0 
L 581 0 
L 581 3500 
L 1159 3500 
L 1159 2956 
Q 1341 3275 1631 3429 
Q 1922 3584 2338 3584 
Q 2397 3584 2469 3576 
Q 2541 3569 2628 3553 
L 2631 2963 
z
" transform="scale(0.015625)"/>
       <path id="DejaVuSans-6f" d="M 1959 3097 
Q 1497 3097 1228 2736 
Q 959 2375 959 1747 
Q 959 1119 1226 758 
Q 1494 397 1959 397 
Q 2419 397 2687 759 
Q 2956 1122 2956 1747 
Q 2956 2369 2687 2733 
Q 2419 3097 1959 3097 
z
M 1959 3584 
Q 2709 3584 3137 3096 
Q 3566 2609 3566 1747 
Q 3566 888 3137 398 
Q 2709 -91 1959 -91 
Q 1206 -91 779 398 
Q 353 888 353 1747 
Q 353 2609 779 3096 
Q 1206 3584 1959 3584 
z
" transform="scale(0.015625)"/>
      </defs>
      <use xlink:href="#DejaVuSans-66"/>
      <use xlink:href="#DejaVuSans-31" transform="translate(35.205078 0)"/>
      <use xlink:href="#DejaVuSans-2d" transform="translate(98.828125 0)"/>
      <use xlink:href="#DejaVuSans-6d" transform="translate(134.912109 0)"/>
      <use xlink:href="#DejaVuSans-61" transform="translate(232.324219 0)"/>
      <use xlink:href="#DejaVuSans-63" transform="translate(293.603516 0)"/>
      <use xlink:href="#DejaVuSans-72" transform="translate(348.583984 0)"/>
      <use xlink:href="#DejaVuSans-6f" transform="translate(387.447266 0)"/>
      <use xlink:href="#DejaVuSans-20" transform="translate(448.628906 0)"/>
      <use xlink:href="#DejaVuSans-28" transform="translate(480.416016 0)"/>
      <use xlink:href="#DejaVuSans-6d" transform="translate(519.429688 0)"/>
      <use xlink:href="#DejaVuSans-65" transform="translate(616.841797 0)"/>
      <use xlink:href="#DejaVuSans-61" transform="translate(678.365234 0)"/>
      <use xlink:href="#DejaVuSans-6e" transform="translate(739.644531 0)"/>
      <use xlink:href="#DejaVuSans-29" transform="translate(803.023438 0)"/>
     </g>
    </g>
   </g>
   <g id="LineCollection_1">
    <path d="M 43.78125 21.860031 
L 489.26125 21.860031 
" clip-path="url(#p68d81f6917)" style="fill: none; stroke-dasharray: 5.55,2.4; stroke-dashoffset: 0; stroke: #0000ff; stroke-width: 1.5"/>
   </g>
   <g id="LineCollection_2">
    <path d="M 43.78125 121.046638 
L 489.26125 121.046638 
" clip-path="url(#p68d81f6917)" style="fill: none; stroke-dasharray: 5.55,2.4; stroke-dashoffset: 0; stroke: #008000; stroke-width: 1.5"/>
   </g>
   <g id="patch_59">
    <path d="M 43.78125 239.128 
L 43.78125 7.2 
" style="fill: none; stroke: #000000; stroke-width: 0.8; stroke-linejoin: miter; stroke-linecap: square"/>
   </g>
   <g id="patch_60">
    <path d="M 489.26125 239.128 
L 489.26125 7.2 
" style="fill: none; stroke: #000000; stroke-width: 0.8; stroke-linejoin: miter; stroke-linecap: square"/>
   </g>
   <g id="patch_61">
    <path d="M 43.78125 239.128 
L 489.26125 239.128 
" style="fill: none; stroke: #000000; stroke-width: 0.8; stroke-linejoin: miter; stroke-linecap: square"/>
   </g>
   <g id="patch_62">
    <path d="M 43.78125 7.2 
L 489.26125 7.2 
" style="fill: none; stroke: #000000; stroke-width: 0.8; stroke-linejoin: miter; stroke-linecap: square"/>
   </g>
   <g id="legend_1">
    <g id="patch_63">
     <path d="M 349.489375 234.128 
L 482.26125 234.128 
Q 484.26125 234.128 484.26125 232.128 
L 484.26125 115.703 
Q 484.26125 113.703 482.26125 113.703 
L 349.489375 113.703 
Q 347.489375 113.703 347.489375 115.703 
L 347.489375 232.128 
Q 347.489375 234.128 349.489375 234.128 
z
" style="fill: #ffffff; opacity: 0.8; stroke: #cccccc; stroke-linejoin: miter"/>
    </g>
    <g id="PathCollection_7">
     <g>
      <use xlink:href="#m62410eebbb" x="361.489375" y="122.676437" style="fill: #1f77b4; stroke: #1f77b4"/>
     </g>
    </g>
    <g id="text_16">
     <!-- dtree -->
     <g transform="translate(379.489375 125.301437) scale(0.1 -0.1)">
      <use xlink:href="#DejaVuSans-64"/>
      <use xlink:href="#DejaVuSans-74" transform="translate(63.476562 0)"/>
      <use xlink:href="#DejaVuSans-72" transform="translate(102.685547 0)"/>
      <use xlink:href="#DejaVuSans-65" transform="translate(141.548828 0)"/>
      <use xlink:href="#DejaVuSans-65" transform="translate(203.072266 0)"/>
     </g>
    </g>
    <g id="PathCollection_8">
     <g>
      <use xlink:href="#m053d212232" x="361.489375" y="137.354562" style="fill: #ff7f0e; stroke: #ff7f0e"/>
     </g>
    </g>
    <g id="text_17">
     <!-- svm -->
     <g transform="translate(379.489375 139.979562) scale(0.1 -0.1)">
      <defs>
       <path id="DejaVuSans-76" d="M 191 3500 
L 800 3500 
L 1894 563 
L 2988 3500 
L 3597 3500 
L 2284 0 
L 1503 0 
L 191 3500 
z
" transform="scale(0.015625)"/>
      </defs>
      <use xlink:href="#DejaVuSans-73"/>
      <use xlink:href="#DejaVuSans-76" transform="translate(52.099609 0)"/>
      <use xlink:href="#DejaVuSans-6d" transform="translate(111.279297 0)"/>
     </g>
    </g>
    <g id="PathCollection_9">
     <g>
      <use xlink:href="#mbdc20148a6" x="361.489375" y="152.032687" style="fill: #2ca02c; stroke: #2ca02c"/>
     </g>
    </g>
    <g id="text_18">
     <!-- randomforest -->
     <g transform="translate(379.489375 154.657687) scale(0.1 -0.1)">
      <use xlink:href="#DejaVuSans-72"/>
      <use xlink:href="#DejaVuSans-61" transform="translate(41.113281 0)"/>
      <use xlink:href="#DejaVuSans-6e" transform="translate(102.392578 0)"/>
      <use xlink:href="#DejaVuSans-64" transform="translate(165.771484 0)"/>
      <use xlink:href="#DejaVuSans-6f" transform="translate(229.248047 0)"/>
      <use xlink:href="#DejaVuSans-6d" transform="translate(290.429688 0)"/>
      <use xlink:href="#DejaVuSans-66" transform="translate(387.841797 0)"/>
      <use xlink:href="#DejaVuSans-6f" transform="translate(423.046875 0)"/>
      <use xlink:href="#DejaVuSans-72" transform="translate(484.228516 0)"/>
      <use xlink:href="#DejaVuSans-65" transform="translate(523.091797 0)"/>
      <use xlink:href="#DejaVuSans-73" transform="translate(584.615234 0)"/>
      <use xlink:href="#DejaVuSans-74" transform="translate(636.714844 0)"/>
     </g>
    </g>
    <g id="PathCollection_10">
     <g>
      <use xlink:href="#mc25da966a9" x="361.489375" y="166.710812" style="fill: #d62728; stroke: #d62728"/>
     </g>
    </g>
    <g id="text_19">
     <!-- xgboost -->
     <g transform="translate(379.489375 169.335812) scale(0.1 -0.1)">
      <defs>
       <path id="DejaVuSans-78" d="M 3513 3500 
L 2247 1797 
L 3578 0 
L 2900 0 
L 1881 1375 
L 863 0 
L 184 0 
L 1544 1831 
L 300 3500 
L 978 3500 
L 1906 2253 
L 2834 3500 
L 3513 3500 
z
" transform="scale(0.015625)"/>
       <path id="DejaVuSans-67" d="M 2906 1791 
Q 2906 2416 2648 2759 
Q 2391 3103 1925 3103 
Q 1463 3103 1205 2759 
Q 947 2416 947 1791 
Q 947 1169 1205 825 
Q 1463 481 1925 481 
Q 2391 481 2648 825 
Q 2906 1169 2906 1791 
z
M 3481 434 
Q 3481 -459 3084 -895 
Q 2688 -1331 1869 -1331 
Q 1566 -1331 1297 -1286 
Q 1028 -1241 775 -1147 
L 775 -588 
Q 1028 -725 1275 -790 
Q 1522 -856 1778 -856 
Q 2344 -856 2625 -561 
Q 2906 -266 2906 331 
L 2906 616 
Q 2728 306 2450 153 
Q 2172 0 1784 0 
Q 1141 0 747 490 
Q 353 981 353 1791 
Q 353 2603 747 3093 
Q 1141 3584 1784 3584 
Q 2172 3584 2450 3431 
Q 2728 3278 2906 2969 
L 2906 3500 
L 3481 3500 
L 3481 434 
z
" transform="scale(0.015625)"/>
       <path id="DejaVuSans-62" d="M 3116 1747 
Q 3116 2381 2855 2742 
Q 2594 3103 2138 3103 
Q 1681 3103 1420 2742 
Q 1159 2381 1159 1747 
Q 1159 1113 1420 752 
Q 1681 391 2138 391 
Q 2594 391 2855 752 
Q 3116 1113 3116 1747 
z
M 1159 2969 
Q 1341 3281 1617 3432 
Q 1894 3584 2278 3584 
Q 2916 3584 3314 3078 
Q 3713 2572 3713 1747 
Q 3713 922 3314 415 
Q 2916 -91 2278 -91 
Q 1894 -91 1617 61 
Q 1341 213 1159 525 
L 1159 0 
L 581 0 
L 581 4863 
L 1159 4863 
L 1159 2969 
z
" transform="scale(0.015625)"/>
      </defs>
      <use xlink:href="#DejaVuSans-78"/>
      <use xlink:href="#DejaVuSans-67" transform="translate(59.179688 0)"/>
      <use xlink:href="#DejaVuSans-62" transform="translate(122.65625 0)"/>
      <use xlink:href="#DejaVuSans-6f" transform="translate(186.132812 0)"/>
      <use xlink:href="#DejaVuSans-6f" transform="translate(247.314453 0)"/>
      <use xlink:href="#DejaVuSans-73" transform="translate(308.496094 0)"/>
      <use xlink:href="#DejaVuSans-74" transform="translate(360.595703 0)"/>
     </g>
    </g>
    <g id="PathCollection_11">
     <g>
      <use xlink:href="#m675a85be37" x="361.489375" y="181.388937" style="fill: #9467bd; stroke: #9467bd"/>
     </g>
    </g>
    <g id="text_20">
     <!-- catboost -->
     <g transform="translate(379.489375 184.013937) scale(0.1 -0.1)">
      <use xlink:href="#DejaVuSans-63"/>
      <use xlink:href="#DejaVuSans-61" transform="translate(54.980469 0)"/>
      <use xlink:href="#DejaVuSans-74" transform="translate(116.259766 0)"/>
      <use xlink:href="#DejaVuSans-62" transform="translate(155.46875 0)"/>
      <use xlink:href="#DejaVuSans-6f" transform="translate(218.945312 0)"/>
      <use xlink:href="#DejaVuSans-6f" transform="translate(280.126953 0)"/>
      <use xlink:href="#DejaVuSans-73" transform="translate(341.308594 0)"/>
      <use xlink:href="#DejaVuSans-74" transform="translate(393.408203 0)"/>
     </g>
    </g>
    <g id="PathCollection_12">
     <g>
      <use xlink:href="#m362e1e84b8" x="361.489375" y="196.067062" style="fill: #8c564b; stroke: #8c564b"/>
     </g>
    </g>
    <g id="text_21">
     <!-- tabpfn -->
     <g transform="translate(379.489375 198.692062) scale(0.1 -0.1)">
      <defs>
       <path id="DejaVuSans-70" d="M 1159 525 
L 1159 -1331 
L 581 -1331 
L 581 3500 
L 1159 3500 
L 1159 2969 
Q 1341 3281 1617 3432 
Q 1894 3584 2278 3584 
Q 2916 3584 3314 3078 
Q 3713 2572 3713 1747 
Q 3713 922 3314 415 
Q 2916 -91 2278 -91 
Q 1894 -91 1617 61 
Q 1341 213 1159 525 
z
M 3116 1747 
Q 3116 2381 2855 2742 
Q 2594 3103 2138 3103 
Q 1681 3103 1420 2742 
Q 1159 2381 1159 1747 
Q 1159 1113 1420 752 
Q 1681 391 2138 391 
Q 2594 391 2855 752 
Q 3116 1113 3116 1747 
z
" transform="scale(0.015625)"/>
      </defs>
      <use xlink:href="#DejaVuSans-74"/>
      <use xlink:href="#DejaVuSans-61" transform="translate(39.208984 0)"/>
      <use xlink:href="#DejaVuSans-62" transform="translate(100.488281 0)"/>
      <use xlink:href="#DejaVuSans-70" transform="translate(163.964844 0)"/>
      <use xlink:href="#DejaVuSans-66" transform="translate(227.441406 0)"/>
      <use xlink:href="#DejaVuSans-6e" transform="translate(262.646484 0)"/>
     </g>
    </g>
    <g id="line2d_59">
     <path d="M 351.489375 209.870187 
L 371.489375 209.870187 
" style="fill: none; stroke-dasharray: 5.55,2.4; stroke-dashoffset: 0; stroke: #0000ff; stroke-width: 1.5"/>
    </g>
    <g id="text_22">
     <!-- bestfull (resampled) -->
     <g transform="translate(379.489375 213.370187) scale(0.1 -0.1)">
      <defs>
       <path id="DejaVuSans-75" d="M 544 1381 
L 544 3500 
L 1119 3500 
L 1119 1403 
Q 1119 906 1312 657 
Q 1506 409 1894 409 
Q 2359 409 2629 706 
Q 2900 1003 2900 1516 
L 2900 3500 
L 3475 3500 
L 3475 0 
L 2900 0 
L 2900 538 
Q 2691 219 2414 64 
Q 2138 -91 1772 -91 
Q 1169 -91 856 284 
Q 544 659 544 1381 
z
M 1991 3584 
L 1991 3584 
z
" transform="scale(0.015625)"/>
       <path id="DejaVuSans-6c" d="M 603 4863 
L 1178 4863 
L 1178 0 
L 603 0 
L 603 4863 
z
" transform="scale(0.015625)"/>
      </defs>
      <use xlink:href="#DejaVuSans-62"/>
      <use xlink:href="#DejaVuSans-65" transform="translate(63.476562 0)"/>
      <use xlink:href="#DejaVuSans-73" transform="translate(125 0)"/>
      <use xlink:href="#DejaVuSans-74" transform="translate(177.099609 0)"/>
      <use xlink:href="#DejaVuSans-66" transform="translate(216.308594 0)"/>
      <use xlink:href="#DejaVuSans-75" transform="translate(251.513672 0)"/>
      <use xlink:href="#DejaVuSans-6c" transform="translate(314.892578 0)"/>
      <use xlink:href="#DejaVuSans-6c" transform="translate(342.675781 0)"/>
      <use xlink:href="#DejaVuSans-20" transform="translate(370.458984 0)"/>
      <use xlink:href="#DejaVuSans-28" transform="translate(402.246094 0)"/>
      <use xlink:href="#DejaVuSans-72" transform="translate(441.259766 0)"/>
      <use xlink:href="#DejaVuSans-65" transform="translate(480.123047 0)"/>
      <use xlink:href="#DejaVuSans-73" transform="translate(541.646484 0)"/>
      <use xlink:href="#DejaVuSans-61" transform="translate(593.746094 0)"/>
      <use xlink:href="#DejaVuSans-6d" transform="translate(655.025391 0)"/>
      <use xlink:href="#DejaVuSans-70" transform="translate(752.4375 0)"/>
      <use xlink:href="#DejaVuSans-6c" transform="translate(815.914062 0)"/>
      <use xlink:href="#DejaVuSans-65" transform="translate(843.697266 0)"/>
      <use xlink:href="#DejaVuSans-64" transform="translate(905.220703 0)"/>
      <use xlink:href="#DejaVuSans-29" transform="translate(968.697266 0)"/>
     </g>
    </g>
    <g id="line2d_60">
     <path d="M 351.489375 224.548312 
L 371.489375 224.548312 
" style="fill: none; stroke-dasharray: 5.55,2.4; stroke-dashoffset: 0; stroke: #008000; stroke-width: 1.5"/>
    </g>
    <g id="text_23">
     <!-- bestfull (original) -->
     <g transform="translate(379.489375 228.048312) scale(0.1 -0.1)">
      <use xlink:href="#DejaVuSans-62"/>
      <use xlink:href="#DejaVuSans-65" transform="translate(63.476562 0)"/>
      <use xlink:href="#DejaVuSans-73" transform="translate(125 0)"/>
      <use xlink:href="#DejaVuSans-74" transform="translate(177.099609 0)"/>
      <use xlink:href="#DejaVuSans-66" transform="translate(216.308594 0)"/>
      <use xlink:href="#DejaVuSans-75" transform="translate(251.513672 0)"/>
      <use xlink:href="#DejaVuSans-6c" transform="translate(314.892578 0)"/>
      <use xlink:href="#DejaVuSans-6c" transform="translate(342.675781 0)"/>
      <use xlink:href="#DejaVuSans-20" transform="translate(370.458984 0)"/>
      <use xlink:href="#DejaVuSans-28" transform="translate(402.246094 0)"/>
      <use xlink:href="#DejaVuSans-6f" transform="translate(441.259766 0)"/>
      <use xlink:href="#DejaVuSans-72" transform="translate(502.441406 0)"/>
      <use xlink:href="#DejaVuSans-69" transform="translate(543.554688 0)"/>
      <use xlink:href="#DejaVuSans-67" transform="translate(571.337891 0)"/>
      <use xlink:href="#DejaVuSans-69" transform="translate(634.814453 0)"/>
      <use xlink:href="#DejaVuSans-6e" transform="translate(662.597656 0)"/>
      <use xlink:href="#DejaVuSans-61" transform="translate(725.976562 0)"/>
      <use xlink:href="#DejaVuSans-6c" transform="translate(787.255859 0)"/>
      <use xlink:href="#DejaVuSans-29" transform="translate(815.039062 0)"/>
     </g>
    </g>
   </g>
  </g>
 </g>
 <defs>
  <clipPath id="p68d81f6917">
   <rect x="43.78125" y="7.2" width="445.48" height="231.928"/>
  </clipPath>
 </defs>
</svg>
